<svg width="1920" height="900" viewBox="0 0 1920 900" fill="none" xmlns="http://www.w3.org/2000/svg">
<path d="M1873.65 725.81C1890.24 713.004 1903.92 702.295 1920 689.161V0H0L4.03126e-05 825.734C16.5 848.513 67 861.081 71 861.486C75 861.892 131.086 871.874 158.631 873.918C164.679 874.41 170.727 874.804 176.752 875.149H177.296C194.941 876.159 212.791 876.578 230.617 876.578C267.585 876.38 304.393 873.401 338.982 865.865C352.053 863.074 364.97 859.489 377.671 855.127C400.861 846.76 423.39 836.366 445.037 824.048C457.065 817.448 468.912 810.651 480.917 804.001C484.745 801.883 488.573 799.79 492.447 797.721C512.067 786.925 532.432 777.81 553.357 770.459C561.119 767.832 569.032 765.493 577.096 763.44C583.453 761.815 589.894 760.354 596.417 759.057C645.39 749.28 698.531 748.221 749.995 750.683C788.163 752.407 826.172 755.806 863.706 760.879C879.652 763.079 895.508 765.542 911.274 768.267C943.59 773.866 975.302 780.679 1006.41 788.708C1096.68 811.98 1180.83 845.079 1270.46 869.46C1273.7 870.224 1276.92 871.086 1280.16 871.923C1306.48 878.819 1333.68 884.877 1361.32 889.581C1416.61 898.988 1473.62 903.003 1528.82 897.511C1543.89 896.008 1558.79 893.817 1573.52 890.812C1575.94 890.32 1578.36 889.802 1580.76 889.261C1595.15 886.084 1608.92 882.217 1622.33 877.784C1630.51 875.075 1638.53 872.169 1646.39 869.066C1660.91 863.353 1674.93 856.974 1688.52 850.128C1728.41 830.081 1764.49 805.873 1798.63 781.492C1809.06 774.055 1819.41 766.543 1829.66 758.958L1830.93 758.022C1841.5 750.306 1851.9 742.515 1862.12 734.651L1873.65 725.81Z" fill="url(#paint0_linear)"/>
<defs>
<linearGradient id="paint0_linear" x1="973.641" y1="1049.47" x2="980.189" y2="114.15" gradientUnits="userSpaceOnUse">
<stop offset="0.0001" stop-color="#FED000"/>
<stop offset="1" stop-color="#F0A500"/>
</linearGradient>
</defs>
</svg>
