<svg width="799" height="1011" viewBox="0 0 799 1011" fill="none" xmlns="http://www.w3.org/2000/svg">
<g filter="url(#filter0_d)">
<path fill-rule="evenodd" clip-rule="evenodd" d="M50.7038 199.541C-92.5286 324.369 -61.4999 544.079 65.3623 678.291C184.196 804.01 390.416 851.656 521.513 763.762C523.693 762.301 525.835 760.799 527.939 759.259L546.454 774.712L541.498 805.036L600.605 753.262L570.565 756.189L556.979 733.031C647.424 633.003 635.397 440.898 543.775 310.74C428.924 147.581 197.487 71.6181 50.7038 199.541Z" fill="#033F88"/>
<path d="M43.6086 581.93C-46.2409 426.105 24.3098 286.699 70.8163 236.474C38.9754 291.341 -4.00542 433.537 78.7984 563.38C161.602 693.223 286.55 743.172 338.673 751.917C277.755 760.182 133.458 737.755 43.6086 581.93Z" fill="url(#paint0_linear)"/>
</g>
<defs>
<filter id="filter0_d" x="-179.345" y="0.977819" width="977.363" height="1009.32" filterUnits="userSpaceOnUse" color-interpolation-filters="sRGB">
<feFlood flood-opacity="0" result="BackgroundImageFix"/>
<feColorMatrix in="SourceAlpha" type="matrix" values="0 0 0 0 0 0 0 0 0 0 0 0 0 0 0 0 0 0 127 0"/>
<feOffset dx="5" dy="10"/>
<feGaussianBlur stdDeviation="5.5"/>
<feColorMatrix type="matrix" values="0 0 0 0 0 0 0 0 0 0 0 0 0 0 0 0 0 0 0.25 0"/>
<feBlend mode="normal" in2="BackgroundImageFix" result="effect1_dropShadow"/>
<feBlend mode="normal" in="SourceGraphic" in2="effect1_dropShadow" result="shape"/>
</filter>
<linearGradient id="paint0_linear" x1="2.07046" y1="580.963" x2="157.148" y2="512.025" gradientUnits="userSpaceOnUse">
<stop stop-color="#313131" stop-opacity="0.55"/>
<stop offset="1" stop-color="#0C0C0C" stop-opacity="0"/>
</linearGradient>
</defs>
</svg>
