<svg width="66" height="74" viewBox="0 0 66 74" fill="none" xmlns="http://www.w3.org/2000/svg">
<path d="M1.05035 60.972C0.8896 61.3738 1.13073 61.8561 1.53261 62.0168L12.6246 66.0355C12.7049 66.0355 12.7853 66.1159 12.8657 66.1159C13.1872 66.1159 13.5087 65.8748 13.5891 65.5533C13.7498 65.1514 13.5087 64.6692 13.1068 64.5084L8.20386 62.7402L14.4732 45.5402C14.634 45.5402 14.7947 45.5402 14.8751 45.5402C16.7238 45.5402 18.8939 44.1738 21.1445 41.6019C23.7165 38.628 26.0474 34.2879 27.8157 29.4654C28.941 26.4916 31.2719 19.0168 31.8345 15.8822C31.9149 15.4804 31.6738 15.1589 31.3523 14.9981L19.6173 10.7383C19.2154 10.5776 18.8136 10.7383 18.6528 11.0598C17.0453 13.7925 14.0713 21.0262 13.0264 24C9.48988 33.8056 9.48988 42.5664 12.9461 44.8972L6.67671 62.0972L2.01487 60.4094C1.61299 60.4094 1.13073 60.5701 1.05035 60.972ZM24.681 24.4019C22.752 23.6785 21.466 24.1607 20.2603 24.4822C19.2154 24.8037 18.2509 25.1252 16.8845 24.643C16.0004 24.3215 15.4377 23.8393 15.0359 23.357C16.2415 20.2224 18.3313 15.1589 19.6977 12.5869L30.1466 16.3645C29.584 18.8561 28.298 23.1159 27.2531 26.2505C26.6905 25.5271 25.9671 24.8841 24.681 24.4019ZM14.4732 25.0449C14.9555 25.4467 15.5181 25.8486 16.3219 26.1701C18.2509 26.8935 19.5369 26.4112 20.7426 26.0897C21.7875 25.7682 22.752 25.4467 24.1184 25.929C25.4848 26.4112 26.0474 27.215 26.6101 28.1794C26.5297 28.5009 26.4493 28.7421 26.2886 28.9832C24.6007 33.6449 22.3501 37.8243 19.8584 40.6374C17.6079 43.2094 15.5181 44.415 14.1517 43.9327C11.4993 42.8879 10.9367 34.9308 14.4732 25.0449Z" fill="#F0A500"/>
<path d="M53.3754 66.1159L64.4674 62.0972C64.8693 61.9365 65.1104 61.4542 64.9496 61.0523C64.7889 60.6505 64.3066 60.4094 63.9048 60.5701L59.2429 62.258L52.9736 45.058C56.4297 42.7271 56.4297 33.9664 52.8932 24.1607C51.7679 21.1869 48.794 13.8729 47.2668 11.2206C47.1061 10.8991 46.6238 10.7383 46.3023 10.8991L34.5673 15.1589C34.1655 15.3196 34.0047 15.6411 34.0851 16.043C34.6477 19.0972 37.059 26.6523 38.1039 29.6262C39.8722 34.4486 42.2835 38.7888 44.7752 41.7626C47.0257 44.3346 49.1959 45.7009 51.0445 45.7009C51.2053 45.7009 51.366 45.7009 51.4464 45.7009L57.7158 62.901L52.8128 64.5888C52.4109 64.7495 52.1698 65.2318 52.3305 65.6337C52.4109 65.9552 52.7324 66.1963 53.0539 66.1963C53.2147 66.1159 53.2951 66.1159 53.3754 66.1159ZM50.8838 23.357C50.4819 23.8393 49.9996 24.3215 49.1155 24.643C47.7491 25.1252 46.7846 24.8841 45.7397 24.4822C44.534 24.0804 43.248 23.6785 41.319 24.4019C40.0329 24.8841 39.3096 25.5271 38.7469 26.3308C37.702 23.1963 36.3356 18.8561 35.8534 16.4449L46.3023 12.6673C47.5883 15.1589 49.6781 20.2224 50.8838 23.357ZM51.6875 43.8523C50.2408 44.3346 48.151 43.2093 45.9808 40.557C43.5695 37.7439 41.319 33.5645 39.5507 28.9028C39.4703 28.6617 39.3899 28.4206 39.2292 28.0991C39.8722 27.1346 40.3544 26.3308 41.7208 25.8486C43.0872 25.3664 44.0518 25.6075 45.0967 26.0093C46.3023 26.4112 47.5883 26.8131 49.5174 26.0897C50.3211 25.7682 50.9641 25.3664 51.366 24.9645C55.0633 34.9308 54.5007 42.8879 51.6875 43.8523Z" fill="#F0A500"/>
<path d="M33.2009 10.0149C32.7991 10.0149 32.3972 9.69345 32.3972 9.21121L32.3168 5.03177C32.3168 4.54952 32.6383 4.22803 33.1206 4.22803C33.6028 4.22803 33.9243 4.54952 33.9243 5.03177L34.0047 9.21121C34.0047 9.69345 33.6832 10.0149 33.2009 10.0149Z" fill="#F0A500"/>
<path d="M28.4587 10.4972C28.2176 10.4972 27.8961 10.3364 27.7353 10.0953L25.5652 6.4785C25.3241 6.07663 25.4848 5.59438 25.8063 5.35326C26.2082 5.11214 26.6905 5.27289 26.9316 5.59438L29.1017 9.21121C29.3429 9.61308 29.1821 10.0953 28.8606 10.3364C28.7802 10.4168 28.6195 10.4972 28.4587 10.4972Z" fill="#F0A500"/>
<path d="M37.8628 10.4168C37.702 10.4168 37.5413 10.4168 37.4609 10.2561C37.059 10.0149 36.9786 9.5327 37.2198 9.13083L39.4703 5.51401C39.7114 5.11214 40.1937 5.03177 40.5956 5.27289C40.9975 5.51401 41.0778 5.99625 40.8367 6.39812L38.5862 10.0149C38.345 10.3364 38.1039 10.4168 37.8628 10.4168Z" fill="#F0A500"/>
</svg>
