<svg width="106" height="117" viewBox="0 0 106 117" fill="none" xmlns="http://www.w3.org/2000/svg">
<g filter="url(#filter0_d)">
<path fill-rule="evenodd" clip-rule="evenodd" d="M37.3358 9.06084C17.0259 14.7607 9.51604 37.2375 15.6905 55.7105C21.4743 73.0145 39.7415 86.6569 57.0585 83.9729C57.3464 83.9282 57.6325 83.8781 57.9166 83.8226L59.0174 86.1213L57.0595 88.8174L65.4533 86.4401L62.3161 85.401L62.0788 82.5786C75.9271 76.9418 83.9996 57.9528 81.1442 41.4182C77.5647 20.6915 58.1493 3.21966 37.3358 9.06084Z" fill="white"/>
<path d="M18.1719 45.4946C16.732 26.5715 30.4968 16.2762 37.5591 13.4939C31.7353 17.3669 20.5856 29.142 22.5768 45.2587C24.5681 61.3754 34.6186 71.667 39.395 74.7983C32.9206 72.915 19.6118 64.4177 18.1719 45.4946Z" fill="url(#paint0_linear)"/>
</g>
<path fill-rule="evenodd" clip-rule="evenodd" d="M62.747 63.3059C66.3694 63.3059 69.306 60.3694 69.306 56.747C69.306 53.1246 66.3694 50.188 62.747 50.188C59.1246 50.188 56.188 53.1246 56.188 56.747C56.188 60.3694 59.1246 63.3059 62.747 63.3059ZM63.4498 55.877H65.3823C65.7704 55.877 66.0851 56.1658 66.0851 56.5221C66.0851 56.8785 65.7704 57.1673 65.3823 57.1673H63.4498V58.9416C63.4498 59.2979 63.1351 59.5867 62.747 59.5867C62.3589 59.5867 62.0443 59.2979 62.0443 58.9416V57.1673H60.1117C59.7236 57.1673 59.409 56.8785 59.409 56.5221C59.409 56.1658 59.7236 55.877 60.1117 55.877H62.0443V54.1027C62.0443 53.7464 62.3589 53.4576 62.747 53.4576C63.1351 53.4576 63.4498 53.7464 63.4498 54.1027V55.877Z" fill="#033F88"/>
<path d="M59.9061 46.6067C59.2126 46.3048 58.5051 46.0447 57.7852 45.8269C60.1168 44.2239 61.6279 41.6714 61.6279 38.8017C61.6279 33.961 57.328 30.0226 52.0427 30.0226C46.7574 30.0226 42.4575 33.961 42.4575 38.8017C42.4575 41.6746 43.972 44.2296 46.308 45.8322C44.1677 46.4776 42.1594 47.4819 40.4016 48.8061C37.1785 51.2344 34.9374 54.6214 34.0915 58.3433C33.8263 59.5095 34.144 60.7073 34.9628 61.6295C35.7776 62.5472 36.9858 63.0735 38.2776 63.0735H55.6371C56.4157 63.0735 57.0467 62.4955 57.0467 61.7824C57.0467 61.0694 56.4157 60.4914 55.6371 60.4914H38.2776C37.6758 60.4914 37.3128 60.1837 37.15 60.0004C36.8688 59.6838 36.76 59.2716 36.8514 58.8695C38.3142 52.4339 44.5119 47.7328 51.669 47.5743C51.793 47.5787 51.9175 47.5809 52.0427 47.5809C52.1691 47.5809 52.2949 47.5786 52.42 47.5742C54.6134 47.6213 56.7228 48.0797 58.6958 48.9388C59.399 49.2448 60.2398 48.971 60.574 48.327C60.9082 47.683 60.6093 46.9128 59.9061 46.6067ZM52.3865 44.9908C52.2721 44.989 52.1575 44.988 52.0427 44.988C51.9289 44.988 51.8152 44.989 51.7016 44.991C48.1286 44.8277 45.2767 42.1141 45.2767 38.8017C45.2767 35.3847 48.3119 32.6047 52.0427 32.6047C55.7735 32.6047 58.8087 35.3847 58.8087 38.8017C58.8087 42.1132 55.9582 44.8264 52.3865 44.9908Z" fill="#033F88"/>
<defs>
<filter id="filter0_d" x="0.713928" y="0.341606" width="105.252" height="116.641" filterUnits="userSpaceOnUse" color-interpolation-filters="sRGB">
<feFlood flood-opacity="0" result="BackgroundImageFix"/>
<feColorMatrix in="SourceAlpha" type="matrix" values="0 0 0 0 0 0 0 0 0 0 0 0 0 0 0 0 0 0 127 0"/>
<feOffset dx="5" dy="10"/>
<feGaussianBlur stdDeviation="5.5"/>
<feColorMatrix type="matrix" values="0 0 0 0 0 0 0 0 0 0 0 0 0 0 0 0 0 0 0.25 0"/>
<feBlend mode="normal" in2="BackgroundImageFix" result="effect1_dropShadow"/>
<feBlend mode="normal" in="SourceGraphic" in2="effect1_dropShadow" result="shape"/>
</filter>
<linearGradient id="paint0_linear" x1="14.0759" y1="43.576" x2="32.8544" y2="44.2142" gradientUnits="userSpaceOnUse">
<stop stop-color="#313131" stop-opacity="0.55"/>
<stop offset="1" stop-color="#0C0C0C" stop-opacity="0"/>
</linearGradient>
</defs>
</svg>
