<svg width="66" height="66" viewBox="0 0 66 66" fill="none" xmlns="http://www.w3.org/2000/svg">
<g clip-path="url(#clip0)">
<path d="M64.7109 26.6192H54.1406V23.8906C54.1406 23.1787 53.5634 22.6016 52.8516 22.6016H25.0078C24.296 22.6016 23.7188 23.1787 23.7188 23.8906C23.7188 24.6026 24.296 25.1797 25.0078 25.1797H51.5625V35.0624C51.5625 43.744 46.9274 51.8127 39.443 56.203H14.6976C7.21321 51.8129 2.57812 43.744 2.57812 35.0625V25.1798H11.2148C11.9267 25.1798 12.5039 24.6027 12.5039 23.8908C12.5039 23.1788 11.9267 22.6017 11.2148 22.6017H1.28906C0.577242 22.6017 0 23.1788 0 23.8908V35.0625C0 39.9352 1.30969 44.713 3.78752 48.8791C5.45854 51.6889 7.62674 54.1701 10.1658 56.2032H1.28906C0.577242 56.2032 0 56.7803 0 57.4922C0 62.1835 3.81653 66 8.50781 66H48.7266C53.4178 66 57.2344 62.1835 57.2344 57.4922C57.2344 56.7803 56.6571 56.2032 55.9453 56.2032H43.9748C46.3118 54.332 48.3334 52.0804 49.9434 49.543H53.5821C60.4293 49.543 66 43.9723 66 37.125V27.9082C66 27.1963 65.4229 26.6192 64.7109 26.6192ZM54.5151 58.7813C53.925 61.4331 51.5536 63.4219 48.7266 63.4219H8.50781C5.68077 63.4219 3.30954 61.4331 2.71928 58.7813H14.3523H39.7883H54.5151ZM54.1406 35.0625V34.3536H58.2656V37.125C58.2656 39.7076 56.1646 41.8086 53.5821 41.8086H53.2893C53.852 39.6164 54.1406 37.35 54.1406 35.0625ZM63.4219 37.125C63.4219 42.5507 59.0077 46.9648 53.5821 46.9648H51.3881C51.7997 46.1242 52.1673 45.2637 52.4886 44.3867H53.5821C57.5863 44.3867 60.8438 41.1291 60.8438 37.125V33.0645C60.8438 32.3525 60.2665 31.7754 59.5547 31.7754H54.1406V29.1973H63.4219V37.125Z" fill="#F0A500"/>
<path d="M28.3013 7.1341L27.6306 6.29196C26.646 5.056 26.6446 3.32827 27.6271 2.09052C28.0697 1.53287 27.9764 0.722047 27.4188 0.279512C26.861 -0.163281 26.0503 -0.0698238 25.6076 0.487825C23.8749 2.67098 23.8774 5.7182 25.6139 7.89826L26.2846 8.7404C27.5713 10.3556 27.5732 12.6134 26.2893 14.231L25.602 15.097C25.1593 15.6547 25.2526 16.4655 25.8103 16.908C26.0473 17.0961 26.33 17.1875 26.6108 17.1875C26.9905 17.1875 27.3668 17.0204 27.6214 16.6997L28.3087 15.8337C30.3429 13.2708 30.3399 9.69341 28.3013 7.1341Z" fill="#F0A500"/>
<path d="M35.4464 10.0323L34.7757 9.19028C33.7911 7.9542 33.7897 6.22647 34.7722 4.98871C35.2149 4.43106 35.1216 3.62024 34.5639 3.17771C34.0061 2.73491 33.1954 2.82837 32.7528 3.38602C31.02 5.56917 31.0226 8.61639 32.7591 10.7966L33.4298 11.6387C34.7163 13.254 34.7182 15.512 33.4343 17.1295L32.7471 17.9953C32.3044 18.553 32.3978 19.3638 32.9554 19.8064C33.1925 19.9944 33.4752 20.0857 33.7559 20.0857C34.1357 20.0857 34.5121 19.9185 34.7666 19.5979L35.4536 18.732C37.4879 16.1693 37.4849 12.5919 35.4464 10.0323Z" fill="#F0A500"/>
<path d="M21.1561 10.0325L20.4854 9.19052C19.5008 7.95456 19.4994 6.22671 20.4818 4.98895C20.9244 4.4313 20.8311 3.62048 20.2734 3.17782C19.7157 2.73515 18.905 2.82874 18.4623 3.38613C16.7297 5.56928 16.7323 8.61663 18.4688 10.7967L19.1395 11.6388C20.4259 13.2542 20.4279 15.5121 19.1441 17.1295L18.4568 17.9953C18.0141 18.553 18.1073 19.3638 18.665 19.8065C18.902 19.9945 19.1846 20.0859 19.4655 20.0859C19.8452 20.0859 20.2215 19.9189 20.476 19.5983L21.1634 18.7323C23.1976 16.1695 23.1946 12.5921 21.1561 10.0325Z" fill="#F0A500"/>
<path d="M19.372 22.9788C19.1323 22.739 18.7997 22.6011 18.4607 22.6011C18.1216 22.6011 17.7891 22.739 17.5493 22.9788C17.3097 23.2198 17.1716 23.5511 17.1716 23.8901C17.1716 24.2292 17.3095 24.5617 17.5493 24.8028C17.7891 25.0426 18.1216 25.1792 18.4607 25.1792C18.7997 25.1792 19.1323 25.0426 19.372 24.8028C19.613 24.5617 19.7497 24.2304 19.7497 23.8901C19.7497 23.5511 19.613 23.2185 19.372 22.9788Z" fill="#F0A500"/>
<path d="M46.6641 33.7734C45.9523 33.7734 45.375 34.3506 45.375 35.0625C45.375 39.8474 43.4342 44.5497 40.0502 47.9638C39.549 48.4694 39.5527 49.2856 40.0583 49.7868C40.3096 50.036 40.6377 50.1604 40.9658 50.1604C41.2976 50.1603 41.6294 50.0329 41.8814 49.7786C45.7401 45.8856 47.9531 40.5218 47.9531 35.0625C47.9531 34.3506 47.3759 33.7734 46.6641 33.7734Z" fill="#F0A500"/>
<path d="M37.8836 51.4626C37.5337 50.8425 36.7475 50.6234 36.1275 50.9732L36.0981 50.9898C35.4779 51.3396 35.2589 52.1258 35.6087 52.7459C35.8456 53.1659 36.2825 53.4019 36.7326 53.4019C36.9471 53.4019 37.1647 53.3481 37.3647 53.2353L37.3941 53.2187C38.0143 52.8689 38.2333 52.0827 37.8836 51.4626Z" fill="#F0A500"/>
</g>
<defs>
<clipPath id="clip0">
<rect width="66" height="66" fill="white"/>
</clipPath>
</defs>
</svg>
