<svg width="48" height="48" viewBox="0 0 48 48" fill="none" xmlns="http://www.w3.org/2000/svg">
<path d="M38.2858 1.45703H12.968C10.0098 1.45837 7.61184 3.85603 7.61083 6.81417V9.12846H5.09297C4.50101 9.12846 4.02155 9.60826 4.02155 10.1999C4.02155 10.7915 4.50101 11.2713 5.09297 11.2713H7.59978V18.2999H5.09297C4.50101 18.2999 4.02155 18.7794 4.02155 19.3713C4.02155 19.9629 4.50101 20.4427 5.09297 20.4427H7.59978V27.4713H5.09297C4.50101 27.4713 4.02155 27.9511 4.02155 28.5427C4.02155 29.1347 4.50101 29.6142 5.09297 29.6142H7.59978V36.6427H5.09297C4.50101 36.6427 4.02155 37.1225 4.02155 37.7142C4.02155 38.3058 4.50101 38.7856 5.09297 38.7856H7.59978V41.0999C7.60112 44.058 9.99878 46.4557 12.9569 46.457H38.2748C41.2329 46.4557 43.6313 44.058 43.6319 41.0999V6.81417C43.6363 3.85804 41.242 1.45904 38.2858 1.45703ZM41.5001 41.0999C41.4948 42.8728 40.0587 44.3092 38.2858 44.3142H12.968C11.1951 44.3092 9.75871 42.8728 9.75369 41.0999V38.7856H12.2605C12.8525 38.7856 13.3319 38.3058 13.3319 37.7142C13.3319 37.1225 12.8525 36.6427 12.2605 36.6427H9.75369V29.6142H12.2605C12.8525 29.6142 13.3319 29.1347 13.3319 28.5427C13.3319 27.9511 12.8525 27.4713 12.2605 27.4713H9.75369V20.4427H12.2605C12.8525 20.4427 13.3319 19.9629 13.3319 19.3713C13.3319 18.7794 12.8525 18.2999 12.2605 18.2999H9.75369V11.2713H12.2605C12.8525 11.2713 13.3319 10.7915 13.3319 10.1999C13.3319 9.60826 12.8525 9.12846 12.2605 9.12846H9.75369V6.81417C9.75871 5.04129 11.1951 3.60491 12.968 3.59989H38.2858C40.0587 3.60491 41.4948 5.04129 41.5001 6.81417V41.0999Z" fill="#101010"/>
<path d="M25.6215 23.6465C28.4913 23.6465 30.818 21.3202 30.818 18.4501C30.818 15.58 28.4913 13.2537 25.6215 13.2537C22.7514 13.2537 20.4251 15.58 20.4251 18.4501C20.4278 21.3188 22.7525 23.6438 25.6215 23.6465ZM25.6215 15.3858C27.3077 15.3858 28.6751 16.7532 28.6751 18.4394C28.6751 20.1255 27.3077 21.493 25.6215 21.493C23.935 21.493 22.568 20.1255 22.568 18.4394C22.571 16.7546 23.936 15.3888 25.6215 15.3858Z" fill="#101010"/>
<path d="M25.6215 25.3713C21.1644 25.3713 17.6712 28.9821 17.6712 33.5999C17.6729 34.1909 18.1517 34.6697 18.7426 34.6713H32.5001C33.0911 34.6697 33.5699 34.1909 33.5715 33.5999C33.5715 28.9821 30.0783 25.3713 25.6215 25.3713ZM19.8998 32.5285C20.3608 29.6035 22.6644 27.5142 25.6215 27.5142C28.5783 27.5142 30.893 29.6035 31.343 32.5285H19.8998Z" fill="#101010"/>
</svg>
