<svg width="71" height="69" viewBox="0 0 71 69" fill="none" xmlns="http://www.w3.org/2000/svg">
<path d="M14.3926 43.6579H7.98753C6.63115 43.6579 5.50084 44.7824 5.42549 46.2283C5.27478 46.7905 4.82266 47.8348 4.37053 47.9954C3.99376 48.0757 3.24022 47.6741 2.10991 46.3086C1.73314 45.8266 0.979602 45.7463 0.527478 46.1479C0.075354 46.5496 0 47.3528 0.37677 47.8348C1.9592 49.8429 3.54164 50.6461 4.89801 50.2445C6.5558 49.7625 7.30934 47.8348 7.5354 46.9512L7.98753 54.582V65.1849C7.98753 65.8275 8.51501 66.3897 9.11784 66.3897C9.72067 66.3897 10.2481 65.8275 10.2481 65.1849V55.8672H11.7552V65.2652C11.7552 65.9078 12.2827 66.47 12.8855 66.47C13.4884 66.47 14.0158 65.9078 14.0158 65.2652V54.6623L14.468 46.0676C14.5433 46.0676 14.694 46.2283 14.694 46.3889V46.4692C14.694 46.5496 14.9955 51.1281 14.9955 53.8591C14.9955 54.5017 15.5229 55.064 16.1258 55.064C16.7286 55.064 17.2561 54.5017 17.2561 53.8591C17.2561 51.1281 16.9547 46.7905 16.9547 46.3086C16.9547 44.8628 15.8243 43.6579 14.3926 43.6579ZM10.1728 53.4575L9.72067 46.0676H12.2074L11.8306 53.4575H10.1728ZM11.3785 34.2599C9.3439 34.2599 7.68611 36.0271 7.68611 38.1958C7.68611 40.4449 9.3439 42.2924 11.3785 42.2924C13.413 42.2924 15.0708 40.4449 15.0708 38.1958C15.0708 36.1074 13.4884 34.3402 11.3785 34.2599ZM11.3785 39.8826C10.6249 39.8826 9.94673 39.0794 9.94673 38.1958C9.94673 37.3122 10.5496 36.6696 11.3031 36.6696C12.132 36.75 12.8102 37.3926 12.8102 38.1958C12.8102 39.0794 12.132 39.8826 11.3785 39.8826ZM30.1416 45.425H23.7365C22.3048 45.425 22.0034 41.9711 22.0034 41.0875C22.0034 40.4449 21.4759 39.8826 20.8731 39.8826C20.2702 39.8826 19.7428 40.4449 19.7428 41.0875C19.7428 43.4972 20.4963 47.4331 23.3597 47.8348L23.7365 56.5098V67.1126C23.7365 67.7552 24.264 68.3175 24.8668 68.3175C25.4697 68.3175 25.9971 67.7552 25.9971 67.1126V57.6343H27.5042V67.0323C27.5042 67.6749 28.0317 68.2372 28.6345 68.2372C29.2374 68.2372 29.7648 67.6749 29.7648 67.0323V56.4295L30.217 47.8348C30.2923 47.8348 30.443 47.9954 30.443 48.1561V48.2364C30.443 48.3167 30.7444 52.8952 30.7444 55.6262C30.7444 56.2688 31.2719 56.8311 31.8748 56.8311C32.4776 56.8311 33.0051 56.2688 33.0051 55.6262C33.0051 52.8952 32.7036 48.5577 32.7036 48.0757C32.7036 46.6299 31.5733 45.425 30.1416 45.425ZM25.9218 55.2246L25.6204 47.8348H28.0317L27.6549 55.2246H25.9218ZM27.1274 36.0271C25.0929 36.0271 23.4351 37.7942 23.4351 39.963C23.4351 42.212 25.0929 44.0595 27.1274 44.0595C29.162 44.0595 30.8198 42.212 30.8198 39.963C30.8198 37.8745 29.2374 36.1074 27.1274 36.0271ZM27.1274 41.6498C26.3739 41.6498 25.6957 40.8465 25.6957 39.963C25.6957 39.0794 26.2986 38.4368 27.0521 38.4368C27.881 38.5171 28.5592 39.1597 28.5592 39.963C28.5592 40.8465 27.881 41.6498 27.1274 41.6498ZM45.8906 42.935H39.2594C37.8277 42.935 36.6974 44.1398 36.6974 45.5857C36.6974 46.0676 36.396 50.4051 36.396 53.1362C36.396 53.7788 36.9235 54.341 37.5263 54.341C38.1291 54.341 38.6566 53.7788 38.6566 53.1362C38.6566 50.4051 38.958 45.8266 38.958 45.7463V45.666C38.958 45.5857 38.958 45.5857 39.0334 45.5053L39.4855 54.0197V64.6226C39.4855 65.2652 40.013 65.8275 40.6158 65.8275C41.2187 65.8275 41.7461 65.2652 41.7461 64.6226V55.1443H43.2532V64.5423C43.2532 65.1849 43.7807 65.7471 44.3835 65.7471C44.9864 65.7471 45.5138 65.1849 45.5138 64.5423V53.9394L46.0413 45.425C46.1167 45.5053 46.192 45.5857 46.192 45.666V45.7463C46.192 45.8266 46.4934 50.4051 46.4934 53.1362C46.4934 53.7788 47.0209 54.341 47.6237 54.341C48.2266 54.341 48.7541 53.7788 48.7541 53.1362C48.7541 50.4051 48.4526 46.0676 48.4526 45.5857C48.4526 44.1398 47.3223 42.935 45.8906 42.935ZM41.6708 52.7346L41.294 45.3447H43.856L43.4039 52.7346H41.6708ZM42.8764 33.6173C40.8419 33.6173 39.1841 35.3845 39.1841 37.5532C39.1841 39.8023 40.8419 41.6498 42.8764 41.6498C44.911 41.6498 46.5688 39.8023 46.5688 37.5532C46.5688 35.3845 44.911 33.6173 42.8764 33.6173ZM42.8764 39.24C42.1229 39.24 41.4447 38.4368 41.4447 37.5532C41.4447 36.6697 42.0476 36.0271 42.8764 36.0271C43.7053 36.0271 44.3082 36.6697 44.3082 37.5532C44.3082 38.4368 43.63 39.24 42.8764 39.24ZM64.9552 38.1155C64.3523 38.0352 63.7495 38.4368 63.6742 39.0794C63.222 42.1317 62.0917 44.6218 61.6396 44.6218H55.2345C54.6317 44.6218 53.426 42.0514 52.8985 38.9991C52.7478 38.3565 52.2203 37.9548 51.5422 38.0352C50.9393 38.1958 50.5626 38.7581 50.6379 39.481C50.9393 41.1678 52.0696 46.3086 54.6317 46.9512L55.2345 55.7066V66.3094C55.2345 66.952 55.762 67.5143 56.3648 67.5143C56.9676 67.5143 57.4951 66.952 57.4951 66.3094V56.9114H58.9269V66.3094C58.9269 66.952 59.4543 67.5143 60.0572 67.5143C60.66 67.5143 61.1875 66.952 61.1875 66.3094V55.7869L61.7903 47.1118C64.503 46.7905 65.558 41.2481 65.8594 39.5613C66.0101 38.8384 65.6334 38.1958 64.9552 38.1155ZM57.4951 54.5017L56.9676 47.1118H59.605L59.0776 54.5017H57.4951ZM58.7008 43.4169C60.7353 43.4169 62.3931 41.5694 62.3931 39.3204C62.3931 37.1516 60.7353 35.3845 58.7008 35.3845C56.6662 35.3845 55.0084 37.1516 55.0084 39.3204C55.0084 41.5694 56.6662 43.4169 58.7008 43.4169ZM58.7008 37.7942C59.4543 37.7942 60.1325 38.5171 60.1325 39.3204C60.1325 40.2039 59.4543 41.0072 58.7008 41.0072C57.9473 41.0072 57.2691 40.2039 57.2691 39.3204C57.2691 38.4368 57.8719 37.7942 58.7008 37.7942ZM18.9139 31.6895C18.4617 31.6895 17.7836 31.8502 17.4068 32.8944C17.2561 33.3763 16.8039 33.6173 16.3518 33.6173C16.2011 33.6173 16.0504 33.6173 15.8997 33.537C15.2969 33.296 15.0708 32.5731 15.2969 31.9305C15.9751 30.2437 17.2561 29.2798 18.9139 29.2798C21.0991 29.2798 21.928 30.6453 22.5309 31.9305C22.8323 32.5731 22.5309 33.2157 22.0034 33.537C21.4005 33.8583 20.7977 33.537 20.4963 32.9747C20.0442 31.9305 19.7428 31.6895 18.9139 31.6895ZM36.4714 32.5731C36.0192 31.6092 35.7178 31.3682 34.9643 31.3682C34.5121 31.3682 33.834 31.5289 33.4572 32.5731C33.3065 33.055 32.8544 33.296 32.4022 33.296C32.2515 33.296 32.1008 33.296 31.9501 33.2157C31.3473 32.9747 31.1212 32.2518 31.3473 31.6092C32.0255 29.9224 33.3065 28.9585 34.9643 28.9585C37.1495 28.9585 37.9784 30.324 38.5813 31.6092C38.8827 32.2518 38.5813 32.8944 38.0538 33.2157C37.451 33.4567 36.7728 33.2157 36.4714 32.5731ZM50.4872 32.5731C50.3365 33.055 49.8844 33.296 49.4322 33.296C49.2815 33.296 49.1308 33.296 48.9801 33.2157C48.3773 32.9747 48.1512 32.2518 48.3773 31.6092C49.0555 29.9224 50.3365 28.9585 51.9943 28.9585C54.1795 28.9585 55.0084 30.324 55.6113 31.6092C55.9127 32.2518 55.6113 32.8944 55.0838 33.2157C54.5563 33.4567 53.8781 33.2157 53.5767 32.6534C53.1246 31.6895 52.8232 31.4486 52.0696 31.4486C51.5422 31.3682 50.864 31.5289 50.4872 32.5731ZM41.2187 27.6733C41.8968 25.9865 43.1779 25.0226 44.8356 25.0226C47.0209 25.0226 47.8498 26.3881 48.4526 27.6733C48.7541 28.3159 48.4526 28.9585 47.9252 29.2798C47.3223 29.5208 46.7195 29.2798 46.4181 28.7175C45.966 27.7536 45.6645 27.5127 44.911 27.5127C44.4589 27.5127 43.7807 27.6733 43.4039 28.7175C43.2532 29.1995 42.8011 29.4404 42.349 29.4404C42.1983 29.4404 42.0476 29.4404 41.8968 29.3601C41.294 29.0388 40.9926 28.3159 41.2187 27.6733ZM23.209 26.6291C23.8872 24.9423 25.1682 23.9784 26.826 23.9784C29.0113 23.9784 29.8402 25.3439 30.443 26.6291C30.7444 27.2717 30.443 27.9143 29.9156 28.2356C29.3881 28.4765 28.7099 28.2356 28.4085 27.6733C27.9563 26.7094 27.6549 26.4684 26.9014 26.4684C26.4493 26.4684 25.7711 26.6291 25.3943 27.6733C25.2436 28.1552 24.7915 28.3962 24.3394 28.3962C24.1886 28.3962 24.0379 28.3962 23.8872 28.3159C23.2844 27.9946 22.983 27.2717 23.209 26.6291ZM6.70651 18.195C6.25438 17.1508 6.25438 15.9459 6.70651 14.5001C6.93257 13.8575 7.5354 13.5362 8.13823 13.7772C8.74107 14.0181 9.04248 14.6607 8.81642 15.3033C8.59036 15.8656 8.43965 16.5885 8.66571 17.0705C8.81642 17.3918 9.19319 17.6327 9.79602 17.7934C11.9813 18.436 13.187 20.4441 12.8855 23.0145C12.8102 23.6571 12.3581 24.0587 11.7552 24.0587C11.6799 24.0587 11.6799 24.0587 11.6045 24.0587C11.0017 23.9784 10.5496 23.3358 10.6249 22.6932C10.7003 22.0506 10.7003 20.5244 9.19319 20.0425C7.98753 19.8015 7.15863 19.1589 6.70651 18.195ZM27.0521 5.98568C27.0521 5.34308 27.5042 4.78081 28.1071 4.70048C28.5592 4.70048 29.6895 4.45951 29.8402 3.33497C29.9156 2.21042 30.3677 1.32685 31.0459 0.76458C31.7994 0.121984 32.8544 -0.0386648 34.2107 0.202309C34.8136 0.362958 35.2657 0.925229 35.115 1.56783C34.9643 2.21042 34.4368 2.69237 33.834 2.53172C33.2311 2.37107 32.7037 2.4514 32.4776 2.61205C32.2515 2.77269 32.1762 3.17432 32.1762 3.49562C31.9501 5.50373 30.443 6.86925 28.3331 6.94957H28.2578C27.5796 7.11022 27.0521 6.62827 27.0521 5.98568ZM55.6113 14.5804C55.9127 15.1427 55.762 15.8656 55.2345 16.2672C54.9331 16.5082 54.8577 16.6688 54.8577 16.6688C54.8577 16.6688 54.8577 16.8295 55.0084 16.9901C55.988 18.2753 55.8373 20.0425 54.6317 21.2473C54.4056 21.4883 54.1042 21.5686 53.8781 21.5686C53.5767 21.5686 53.2753 21.408 53.0492 21.167C52.5971 20.6851 52.6725 19.8818 53.1246 19.4802C53.2753 19.3195 53.5767 18.9179 53.2753 18.5163C52.5971 17.6327 52.5971 16.8295 52.6725 16.2672C52.8232 15.464 53.2753 14.8214 54.1042 14.2591C54.5563 13.8575 55.2345 14.0181 55.6113 14.5804ZM67.4419 15.3836C67.5172 16.0262 66.9897 16.5885 66.3869 16.6688H66.3115C65.7087 16.6688 65.2566 16.1869 65.1812 15.5443C65.0305 13.8575 65.9348 12.492 67.4419 12.0903C67.6679 12.01 67.7433 12.01 67.7433 11.9297C67.7433 11.9297 67.7433 11.769 67.6679 11.2871C67.5172 10.6445 67.8186 10.0019 68.4215 9.76093C69.0243 9.60028 69.6271 9.92158 69.8532 10.5642C70.1546 11.5281 70.0792 12.4116 69.7025 13.0542C69.3257 13.6968 68.7982 14.0985 67.9693 14.3394C67.8186 14.5001 67.3665 14.5804 67.4419 15.3836ZM34.2107 14.0181C34.4368 14.2591 34.5121 14.5804 34.5121 14.9017C34.5121 15.223 34.3614 15.5443 34.2107 15.7853C33.9847 16.0262 33.6833 16.1066 33.3818 16.1066C33.0804 16.1066 32.779 15.9459 32.5529 15.7853C32.3269 15.5443 32.2515 15.223 32.2515 14.9017C32.2515 14.5804 32.4022 14.2591 32.5529 14.0181C33.0051 13.6165 33.7586 13.6165 34.2107 14.0181ZM39.2594 19.1589C39.0334 18.9179 38.958 18.5966 38.958 18.2753C38.958 17.954 39.1087 17.6327 39.2594 17.3918C39.7116 16.9098 40.4651 16.9098 40.8419 17.3918C41.0679 17.6327 41.1433 17.954 41.1433 18.2753C41.1433 18.5966 40.9926 18.9179 40.8419 19.1589C40.6158 19.3999 40.3144 19.4802 40.013 19.4802C39.7869 19.4802 39.4855 19.3195 39.2594 19.1589ZM0.301416 11.769C0.0753541 11.5281 0 11.2068 0 10.8855C0 10.5642 0.150708 10.2429 0.301416 10.0019C0.75354 9.51995 1.50708 9.51995 1.88385 10.0019C2.10991 10.2429 2.18527 10.5642 2.18527 10.8855C2.18527 11.2068 2.03456 11.5281 1.88385 11.769C1.65779 12.01 1.35637 12.0903 1.05496 12.0903C0.828894 12.0903 0.527478 11.9297 0.301416 11.769ZM52.7478 6.14633C52.5218 5.90535 52.4464 5.58405 52.4464 5.26275C52.4464 4.94146 52.5971 4.62016 52.7478 4.37918C53.1999 3.89724 53.9535 3.89724 54.3303 4.37918C54.5563 4.62016 54.6317 4.94146 54.6317 5.26275C54.6317 5.58405 54.481 5.90535 54.3303 6.14633C54.1042 6.3873 53.8028 6.46762 53.5014 6.46762C53.2753 6.46762 52.9739 6.30697 52.7478 6.14633ZM69.4011 27.593C69.6271 27.8339 69.7025 28.1552 69.7025 28.4765C69.7025 28.7978 69.5518 29.1191 69.4011 29.3601C69.175 29.6011 68.8736 29.6814 68.5722 29.6814C68.2708 29.6814 67.9693 29.5208 67.7433 29.3601C67.5172 29.1191 67.4419 28.7978 67.4419 28.4765C67.4419 28.1552 67.5926 27.8339 67.7433 27.593C68.1954 27.1914 68.9489 27.1914 69.4011 27.593ZM12.3581 6.7086C12.132 6.46762 12.0566 6.14632 12.0566 5.82503C12.0566 5.50373 12.2074 5.18243 12.3581 4.94146C12.7348 4.45951 13.5637 4.45951 13.9405 4.94146C14.1666 5.18243 14.2419 5.50373 14.2419 5.82503C14.2419 6.14632 14.0912 6.46762 13.9405 6.7086C13.7144 6.94957 13.413 7.0299 13.1116 7.0299C12.8855 7.0299 12.5841 6.86925 12.3581 6.7086Z" fill="#F0A500"/>
</svg>
