<svg width="125" height="135" viewBox="0 0 125 135" fill="none" xmlns="http://www.w3.org/2000/svg">
<g filter="url(#filter0_d)">
<path fill-rule="evenodd" clip-rule="evenodd" d="M72.1681 17.5195C52.243 10.3403 32.7824 24.7756 26.8438 43.9111C21.281 61.8356 28.059 84.0402 43.7561 91.987C44.0171 92.1191 44.2799 92.2455 44.5442 92.3663L44.076 94.9432L40.8808 96.0522L49.1284 99.0011L47.1902 96.2817L48.6726 93.7739C63.2978 97.2004 81.1459 86.0228 88.6368 70.4684C98.0269 50.9704 92.5872 24.8767 72.1681 17.5195Z" fill="white" fill-opacity="0.31"/>
<path d="M26.8438 43.9111L24.4561 43.1701L26.8438 43.9111ZM72.1681 17.5195L73.0156 15.1675L72.1681 17.5195ZM43.7561 91.987L44.8853 89.7565L44.8853 89.7565L43.7561 91.987ZM44.5442 92.3663L47.004 92.8132L47.3516 90.9L45.5828 90.0922L44.5442 92.3663ZM44.076 94.9432L44.8957 97.305L46.2747 96.8264L46.5357 95.3902L44.076 94.9432ZM40.8808 96.0522L40.0611 93.6904L33.3573 96.0172L40.0391 98.4063L40.8808 96.0522ZM49.1284 99.0011L48.2867 101.355L55.7874 104.037L51.1642 97.5502L49.1284 99.0011ZM47.1902 96.2817L45.0381 95.0095L44.2109 96.4089L45.1543 97.7326L47.1902 96.2817ZM48.6726 93.7739L49.2429 91.3398L47.455 90.9209L46.5205 92.5017L48.6726 93.7739ZM88.6368 70.4684L86.3844 69.3836L86.3844 69.3836L88.6368 70.4684ZM29.2314 44.6521C34.8978 26.394 53.1686 13.3312 71.3207 19.8715L73.0156 15.1675C51.3175 7.34953 30.667 23.1573 24.4561 43.1701L29.2314 44.6521ZM44.8853 89.7565C37.7548 86.1467 32.5013 79.2129 29.6965 70.8921C26.8933 62.5762 26.6149 53.0832 29.2314 44.6521L24.4561 43.1701C21.5099 52.6635 21.839 63.2351 24.9584 72.4893C28.0762 81.7386 34.0603 89.8805 42.6269 94.2174L44.8853 89.7565ZM45.5828 90.0922C45.3488 89.9854 45.1163 89.8735 44.8853 89.7565L42.6269 94.2174C42.9179 94.3647 43.2109 94.5057 43.5057 94.6403L45.5828 90.0922ZM46.5357 95.3902L47.004 92.8132L42.0845 91.9193L41.6162 94.4963L46.5357 95.3902ZM41.7005 98.414L44.8957 97.305L43.2562 92.5815L40.0611 93.6904L41.7005 98.414ZM49.97 96.6471L41.7225 93.6982L40.0391 98.4063L48.2867 101.355L49.97 96.6471ZM45.1543 97.7326L47.0925 100.452L51.1642 97.5502L49.2261 94.8307L45.1543 97.7326ZM46.5205 92.5017L45.0381 95.0095L49.3423 97.5539L50.8247 95.0461L46.5205 92.5017ZM86.3844 69.3836C82.8631 76.6955 76.8779 83.0189 70.0494 87.0919C63.2034 91.1753 55.75 92.8643 49.2429 91.3398L48.1024 96.208C56.2204 98.1099 65.0036 95.9234 72.6107 91.386C80.2353 86.8382 86.9197 79.7956 90.8892 71.5531L86.3844 69.3836ZM71.3207 19.8715C80.6297 23.2256 86.6075 30.8575 89.1718 40.1089C91.7454 49.3944 90.8215 60.1702 86.3844 69.3836L90.8892 71.5531C95.8422 61.2685 96.8935 49.2485 93.9901 38.7734C91.0772 28.264 84.1257 19.1706 73.0156 15.1675L71.3207 19.8715Z" fill="white"/>
</g>
<path d="M34.9298 36.8013C44.9916 20.0766 62.3144 19.5454 69.7181 21.3704C62.6756 21.19 46.604 24.5028 38.6574 39.1976C30.7108 53.8924 32.7862 68.4464 34.8173 73.8866C30.6624 68.4934 24.868 53.526 34.9298 36.8013Z" fill="url(#paint0_linear)"/>
<path d="M71.4688 49.75H70.625V48.9062C70.625 47.5083 69.4917 46.375 68.0938 46.375H67.25V45.5312C67.25 44.1333 66.1167 43 64.7188 43H49.5312C48.1333 43 47 44.1333 47 45.5312V60.7188C47 62.1167 48.1333 63.25 49.5312 63.25H50.375V64.0938C50.375 65.4917 51.5083 66.625 52.9062 66.625H53.75V67.4688C53.75 68.8667 54.8833 70 56.2812 70H71.4688C72.8667 70 74 68.8667 74 67.4688V52.2812C74 50.8833 72.8667 49.75 71.4688 49.75ZM48.6875 56.9978V45.5312C48.6875 45.0652 49.0652 44.6875 49.5312 44.6875H64.7188C65.1848 44.6875 65.5625 45.0652 65.5625 45.5312V53.6228L63.6303 51.6906C63.3012 51.3635 62.7697 51.3635 62.4406 51.6906L58.8125 55.3103L55.1928 51.6822C54.8637 51.355 54.3322 51.355 54.0031 51.6822L48.6875 56.9978ZM52.9062 64.9375C52.4402 64.9375 52.0625 64.5598 52.0625 64.0938V63.25H64.7188C66.1167 63.25 67.25 62.1167 67.25 60.7188V48.0625H68.0938C68.5598 48.0625 68.9375 48.4402 68.9375 48.9062V64.0938C68.9375 64.5598 68.5598 64.9375 68.0938 64.9375H52.9062ZM72.3125 67.4688C72.3125 67.9348 71.9348 68.3125 71.4688 68.3125H56.2812C55.8152 68.3125 55.4375 67.9348 55.4375 67.4688V66.625H68.0938C69.4917 66.625 70.625 65.4917 70.625 64.0938V51.4375H71.4688C71.9348 51.4375 72.3125 51.8152 72.3125 52.2812V67.4688Z" fill="white"/>
<defs>
<filter id="filter0_d" x="0.448212" y="0.765656" width="124.172" height="133.325" filterUnits="userSpaceOnUse" color-interpolation-filters="sRGB">
<feFlood flood-opacity="0" result="BackgroundImageFix"/>
<feColorMatrix in="SourceAlpha" type="matrix" values="0 0 0 0 0 0 0 0 0 0 0 0 0 0 0 0 0 0 127 0"/>
<feOffset dx="5" dy="10"/>
<feGaussianBlur stdDeviation="5.5"/>
<feColorMatrix type="matrix" values="0 0 0 0 0 0 0 0 0 0 0 0 0 0 0 0 0 0 0.25 0"/>
<feBlend mode="normal" in2="BackgroundImageFix" result="effect1_dropShadow"/>
<feBlend mode="normal" in="SourceGraphic" in2="effect1_dropShadow" result="shape"/>
</filter>
<linearGradient id="paint0_linear" x1="32.7329" y1="32.7792" x2="47.7822" y2="44.1972" gradientUnits="userSpaceOnUse">
<stop stop-color="white"/>
<stop offset="1" stop-color="#0C0C0C" stop-opacity="0"/>
</linearGradient>
</defs>
</svg>
