<svg width="439" height="404" viewBox="0 0 439 404" fill="none" xmlns="http://www.w3.org/2000/svg">
<g clip-path="url(#clip0)">
<path d="M309.652 9.81934C360.939 17.0813 425.286 44.6668 436.971 85.3014C448.661 126.042 407.713 179.732 368.733 222.687C329.765 265.743 292.802 298.07 247.515 319.85C202.235 341.536 148.732 352.83 112.721 332.376C76.8093 312.065 58.5142 260.061 37.2063 214.262C15.8299 168.363 -8.60286 128.568 2.96926 100.672C14.5663 72.8808 62.1682 56.9816 97.974 46.9816C133.78 36.9817 157.683 32.7689 188.858 24.2437C219.926 15.6065 258.259 2.55738 309.652 9.81934Z" fill="#EDEDED"/>
<path d="M146.441 22.0969C138.218 22.0969 135.647 34.9407 135.647 40.0745C135.647 48.7863 144.897 84.7663 153.631 84.7663C162.365 84.7663 171.621 49.2966 171.621 45.2145C171.621 41.1323 160.827 22.0969 146.441 22.0969Z" fill="#FFD1BB"/>
<path d="M307.94 24.5305L184.329 0.287462C175.777 -1.38981 167.484 4.18093 165.806 12.7301L118.637 253.07C116.959 261.619 122.531 269.909 131.084 271.586L254.695 295.829C263.247 297.507 271.54 291.936 273.218 283.387L320.387 43.0471C322.065 34.498 316.492 26.2078 307.94 24.5305Z" fill="#4286D9"/>
<path d="M279.617 19.0352L278.055 26.9941C277.668 28.9412 276.525 30.6559 274.877 31.7627C273.228 32.8694 271.208 33.2782 269.259 32.8995L215.961 22.4453C214.014 22.0572 212.3 20.9146 211.193 19.267C210.086 17.6195 209.677 15.601 210.054 13.6525L211.647 5.6936" fill="#FFD578"/>
<path d="M108.992 240.547L277.463 273.596" stroke="#FFD578" stroke-width="3" stroke-miterlimit="10"/>
<path d="M193.39 276.589C196.838 276.589 199.633 273.794 199.633 270.347C199.633 266.9 196.838 264.106 193.39 264.106C189.941 264.106 187.146 266.9 187.146 270.347C187.146 273.794 189.941 276.589 193.39 276.589Z" fill="#FFD578"/>
<path d="M136.681 91.4744C125.887 91.4744 118.69 99.6884 118.69 108.425C118.69 137.187 135.137 160.815 142.345 160.815C157.758 160.815 163.41 152.594 163.41 146.944C163.398 142.806 161.344 91.4744 136.681 91.4744Z" fill="#FFD1BB"/>
<path d="M131.028 166.95C134.11 170.031 157.746 195.202 157.746 212.663C157.746 224.486 155.175 233.72 133.593 233.72C123.316 233.72 94.5441 193.142 94.5441 176.708C94.5441 167.461 100.196 145.886 116.126 145.886C120.751 145.886 131.028 154.106 132.566 156.16C134.149 157.799 135.829 159.343 137.596 160.784C136.948 164.125 133.375 181.704 133.375 181.704" fill="#FFD1BB"/>
<path d="M138.598 175.407C138.598 175.407 131.284 166.179 126.658 162.072" stroke="#FFD578" stroke-width="3" stroke-miterlimit="10" stroke-linecap="round"/>
<path d="M127.188 270.285C125.65 274.398 124.604 314.112 129.229 336.197C126.117 352.121 113.81 404.025 113.81 404.025H225.342L236.646 358.823C236.646 358.823 305.469 298.692 312.149 287.914C318.828 277.136 334.502 214.206 334.278 208.3C334.098 204.193 259.255 141.007 257.201 138.437C255.147 135.867 219.005 172.04 279.125 213.671C278.609 218.804 278.64 241.48 278.64 241.48C278.64 241.48 236.821 255.848 232.575 258.947C228.33 262.046 220.206 283.882 218.737 288.779C213.054 287.672 127.188 270.285 127.188 270.285Z" fill="#FFD1BB"/>
<path d="M209.973 314.517C211.373 309.165 218.165 289.943 219.852 285.357" stroke="#FFD578" stroke-width="3" stroke-miterlimit="10" stroke-linecap="round"/>
</g>
<defs>
<clipPath id="clip0">
<rect width="439" height="404" fill="white"/>
</clipPath>
</defs>
</svg>
