<svg width="311" height="314" viewBox="0 0 311 314" fill="none" xmlns="http://www.w3.org/2000/svg">
<g clip-path="url(#clip0)" filter="url(#filter0_d)">
<path d="M33.3712 239.924C33.2837 241.203 31.4689 241.366 31.155 240.123L30.521 237.612C30.4032 237.146 30.0744 236.761 29.6307 236.575C25.5665 234.874 21.4194 233.38 17.2052 232.099C16.8218 231.982 16.4307 232.254 16.4033 232.654V232.654C16.3546 233.364 15.3467 233.454 15.1724 232.764L14.9367 231.83C14.8688 231.561 14.662 231.348 14.3951 231.273C13.634 231.057 12.9065 230.857 12.2175 230.674C8.88401 229.786 6.08348 232.789 7.20873 236.05C9.69618 243.259 14.3093 254.74 21.1723 264.513C21.4737 264.942 21.9349 265.23 22.4513 265.321L26.8845 266.103C28.3247 266.357 28.2927 268.435 26.8453 268.644V268.644C25.8512 268.788 25.4027 269.961 26.0761 270.706C27.0537 271.788 28.0756 272.83 29.1392 273.828C45.5363 289.107 63.7999 296.117 69.9316 289.485C76.0633 282.853 67.7416 265.091 51.3445 249.813C46.6546 245.443 40.8562 241.87 34.9668 238.993C34.2554 238.645 33.4252 239.134 33.3712 239.924V239.924Z" fill="url(#paint0_linear)"/>
<path d="M61.2238 230.212C60.4899 231.262 58.852 230.467 59.223 229.241L59.9773 226.749C60.1164 226.289 60.0336 225.79 59.7503 225.402C57.147 221.836 54.3659 218.404 51.4178 215.12C51.1497 214.822 50.6739 214.852 50.444 215.181V215.181C50.0363 215.764 49.1267 215.322 49.3327 214.641L49.6139 213.712C49.6942 213.447 49.6271 213.158 49.4381 212.956C48.9007 212.379 48.3835 211.834 47.8907 211.322C45.4942 208.832 41.5364 209.96 40.8202 213.341C39.2387 220.806 37.2812 233.017 38.1233 244.932C38.1601 245.453 38.405 245.937 38.798 246.281L42.2019 249.26C43.3006 250.222 42.1981 251.98 40.8539 251.409V251.409C39.9291 251.017 38.9382 251.789 39.1307 252.775C39.4106 254.209 39.7494 255.631 40.1462 257.037C46.3157 278.625 58.3405 294.104 67.0041 291.609C75.6678 289.113 77.69 269.59 71.5205 248.001C69.756 241.826 66.6319 235.758 63.0715 230.239C62.642 229.573 61.6777 229.563 61.2238 230.212V230.212Z" fill="url(#paint1_linear)"/>
<path d="M207.361 70.175H205.767V26.3599C205.767 23.0296 205.114 19.7319 203.844 16.6551C202.575 13.5783 200.714 10.7826 198.368 8.42776C196.023 6.07287 193.238 4.20487 190.173 2.93041C187.108 1.65595 183.823 1 180.506 1H88.0344C81.3346 1 74.9092 3.67184 70.1717 8.42776C65.4343 13.1837 62.7728 19.6341 62.7728 26.3599V266.737C62.7728 270.067 63.4262 273.365 64.6957 276.442C65.9652 279.518 67.826 282.314 70.1717 284.669C72.5175 287.024 75.3023 288.892 78.3672 290.166C81.4321 291.441 84.717 292.097 88.0344 292.097H180.506C187.205 292.097 193.631 289.425 198.368 284.669C203.106 279.913 205.767 273.463 205.767 266.737V101.363H207.36L207.361 70.175Z" fill="#222222"/>
<path d="M181.525 7.59532H169.455C170.01 8.9616 170.222 10.444 170.072 11.9118C169.922 13.3797 169.415 14.7879 168.595 16.0126C167.775 17.2372 166.668 18.2406 165.371 18.9344C164.073 19.6282 162.626 19.991 161.156 19.9909H108.18C106.711 19.9909 105.264 19.6279 103.966 18.9341C102.669 18.2403 101.562 17.2369 100.742 16.0123C99.9223 14.7876 99.4151 13.3794 99.2651 11.9116C99.1151 10.4438 99.327 8.96154 99.882 7.59532H88.6083C83.6049 7.59532 78.8065 9.59063 75.2686 13.1423C71.7307 16.694 69.7431 21.5111 69.7431 26.5339V266.562C69.7431 271.585 71.7307 276.402 75.2686 279.953C78.8065 283.505 83.6049 285.5 88.6083 285.5H181.525C186.528 285.5 191.327 283.505 194.865 279.953C198.403 276.402 200.39 271.585 200.39 266.562V266.562V26.5335C200.39 21.5107 198.402 16.6937 194.865 13.1422C191.327 9.59057 186.528 7.59532 181.525 7.59532V7.59532Z" fill="#F5F5F5"/>
<path d="M123.227 103.21C123.226 101.532 123.666 99.8842 124.502 98.4313C125.338 96.9785 126.54 95.7723 127.988 94.9342C126.541 94.0952 124.899 93.6533 123.228 93.6532C121.557 93.653 119.916 94.0944 118.468 94.9331C117.021 95.7718 115.819 96.9782 114.983 98.4311C114.148 99.8839 113.708 101.532 113.708 103.21C113.708 104.887 114.148 106.535 114.983 107.988C115.819 109.441 117.021 110.647 118.468 111.486C119.916 112.325 121.557 112.766 123.228 112.766C124.899 112.766 126.541 112.324 127.988 111.485C126.54 110.647 125.338 109.441 124.502 107.988C123.666 106.536 123.226 104.888 123.227 103.21V103.21Z" fill="#DFDFDF"/>
<path d="M135.194 103.21C135.193 101.532 135.633 99.8841 136.469 98.4313C137.305 96.9784 138.508 95.7723 139.955 94.9342C138.508 94.0952 136.867 93.6533 135.196 93.6532C133.524 93.653 131.883 94.0944 130.435 94.9331C128.988 95.7718 127.786 96.9782 126.951 98.4311C126.115 99.8839 125.675 101.532 125.675 103.21C125.675 104.887 126.115 106.535 126.951 107.988C127.786 109.441 128.988 110.647 130.435 111.486C131.883 112.325 133.524 112.766 135.196 112.766C136.867 112.766 138.508 112.324 139.955 111.485C138.508 110.647 137.305 109.441 136.469 107.988C135.634 106.536 135.194 104.888 135.194 103.21V103.21Z" fill="#DFDFDF"/>
<path d="M146.889 112.766C152.147 112.766 156.409 108.488 156.409 103.21C156.409 97.9319 152.147 93.6534 146.889 93.6534C141.632 93.6534 137.37 97.9319 137.37 103.21C137.37 108.488 141.632 112.766 146.889 112.766Z" fill="#F9A826"/>
<path d="M162.798 133.058H107.317C106.789 133.058 106.283 132.847 105.909 132.472C105.536 132.097 105.326 131.589 105.325 131.058V75.3613C105.326 74.831 105.536 74.3227 105.909 73.9477C106.283 73.5728 106.789 73.3619 107.317 73.3613H162.798C163.327 73.3619 163.833 73.5728 164.207 73.9477C164.58 74.3227 164.79 74.831 164.791 75.3613V131.058C164.79 131.589 164.58 132.097 164.207 132.472C163.833 132.847 163.327 133.058 162.798 133.058V133.058ZM107.317 74.1617C107 74.162 106.697 74.2886 106.472 74.5135C106.248 74.7385 106.122 75.0435 106.122 75.3617V131.059C106.122 131.377 106.248 131.682 106.472 131.907C106.697 132.132 107 132.258 107.317 132.259H162.798C163.115 132.258 163.419 132.132 163.643 131.907C163.867 131.682 163.993 131.377 163.994 131.059V75.3617C163.993 75.0435 163.867 74.7385 163.643 74.5135C163.419 74.2886 163.115 74.162 162.798 74.1617H107.317Z" fill="#CCCCCC"/>
<path d="M175.186 175.753H90.0952V176.553H175.186V175.753Z" fill="#CCCCCC"/>
<path d="M92.7824 170.758C94.2665 170.758 95.4697 169.55 95.4697 168.06C95.4697 166.57 94.2665 165.362 92.7824 165.362C91.2983 165.362 90.0952 166.57 90.0952 168.06C90.0952 169.55 91.2983 170.758 92.7824 170.758Z" fill="#F9A826"/>
<path d="M175.186 202.728H90.0952V203.528H175.186V202.728Z" fill="#CCCCCC"/>
<path d="M92.7824 197.733C94.2665 197.733 95.4697 196.526 95.4697 195.036C95.4697 193.546 94.2665 192.338 92.7824 192.338C91.2983 192.338 90.0952 193.546 90.0952 195.036C90.0952 196.526 91.2983 197.733 92.7824 197.733Z" fill="#F9A826"/>
<path d="M173.629 233.447H146.738C146.274 233.446 145.828 233.261 145.5 232.931C145.171 232.601 144.987 232.154 144.986 231.688V222.226C144.987 221.759 145.171 221.312 145.5 220.983C145.828 220.653 146.274 220.467 146.738 220.467H173.629C174.094 220.467 174.539 220.653 174.868 220.983C175.196 221.312 175.381 221.759 175.381 222.226V231.688C175.381 232.154 175.196 232.601 174.868 232.931C174.539 233.261 174.094 233.446 173.629 233.447V233.447Z" fill="#F9A826"/>
<path d="M101.548 170.758C103.032 170.758 104.235 169.55 104.235 168.06C104.235 166.57 103.032 165.362 101.548 165.362C100.064 165.362 98.8608 166.57 98.8608 168.06C98.8608 169.55 100.064 170.758 101.548 170.758Z" fill="#F9A826"/>
<path d="M110.314 170.758C111.798 170.758 113.001 169.55 113.001 168.06C113.001 166.57 111.798 165.362 110.314 165.362C108.83 165.362 107.626 166.57 107.626 168.06C107.626 169.55 108.83 170.758 110.314 170.758Z" fill="#F9A826"/>
<path d="M101.548 197.733C103.032 197.733 104.235 196.526 104.235 195.036C104.235 193.546 103.032 192.338 101.548 192.338C100.064 192.338 98.8608 193.546 98.8608 195.036C98.8608 196.526 100.064 197.733 101.548 197.733Z" fill="#F9A826"/>
<path d="M110.314 197.733C111.798 197.733 113.001 196.526 113.001 195.036C113.001 193.546 111.798 192.338 110.314 192.338C108.83 192.338 107.626 193.546 107.626 195.036C107.626 196.526 108.83 197.733 110.314 197.733Z" fill="#F9A826"/>
<path d="M293.917 293H14.3753C13.7769 293 13.2922 292.787 13.2922 292.524C13.2922 292.261 13.7769 292.047 14.3753 292.047H293.917C294.515 292.047 295 292.261 295 292.524C295 292.787 294.515 293 293.917 293Z" fill="#3F3D56"/>
<path d="M224.852 192.309C225.043 192.397 225.227 192.5 225.401 192.617L242.864 185.135L243.487 180.517L250.465 180.474L250.053 191.065L227.004 197.185C226.955 197.345 226.897 197.503 226.83 197.657C226.496 198.371 225.96 198.97 225.289 199.379C224.618 199.788 223.841 199.989 223.056 199.956C222.272 199.923 221.514 199.659 220.879 199.195C220.244 198.732 219.759 198.091 219.486 197.352C219.212 196.613 219.163 195.809 219.343 195.042C219.523 194.274 219.925 193.577 220.498 193.039C221.072 192.5 221.791 192.143 222.565 192.014C223.34 191.884 224.135 191.987 224.852 192.309V192.309Z" fill="#FFB8B8"/>
<path d="M253.003 288.288H248.229L245.959 269.805L253.003 269.805L253.003 288.288Z" fill="#FFB8B8"/>
<path d="M244.82 286.919H254.025V292.737H239.024C239.024 291.194 239.634 289.714 240.721 288.623C241.808 287.532 243.283 286.919 244.82 286.919Z" fill="#222222"/>
<path d="M271.566 286.934L266.816 287.404L262.751 269.234L269.762 268.54L271.566 286.934Z" fill="#FFB8B8"/>
<path d="M263.289 286.377L272.451 285.471L273.019 291.261L258.089 292.738C258.015 291.977 258.09 291.209 258.311 290.478C258.532 289.747 258.894 289.067 259.377 288.476C259.86 287.885 260.454 287.396 261.125 287.036C261.797 286.675 262.532 286.452 263.289 286.377Z" fill="#222222"/>
<path d="M254.331 160.913C259.612 160.913 263.894 156.615 263.894 151.313C263.894 146.011 259.612 141.713 254.331 141.713C249.05 141.713 244.769 146.011 244.769 151.313C244.769 156.615 249.05 160.913 254.331 160.913Z" fill="#FFB8B8"/>
<path d="M247.163 284.55C246.752 284.551 246.355 284.407 246.04 284.142C245.726 283.878 245.515 283.511 245.444 283.105C242.973 269.337 234.897 224.318 234.704 223.071C234.7 223.042 234.698 223.013 234.698 222.984V219.628C234.698 219.505 234.736 219.386 234.807 219.287L235.874 217.787C235.924 217.715 235.991 217.655 236.068 217.613C236.145 217.57 236.231 217.546 236.319 217.543C242.401 217.256 262.321 216.417 263.283 217.624C264.249 218.837 263.908 222.513 263.83 223.237L263.834 223.313L272.783 280.767C272.853 281.225 272.74 281.692 272.47 282.068C272.199 282.444 271.792 282.697 271.336 282.774L265.747 283.698C265.33 283.765 264.904 283.68 264.545 283.458C264.186 283.236 263.918 282.893 263.79 282.489C262.061 276.944 256.265 258.288 254.256 251.07C254.243 251.024 254.214 250.984 254.175 250.958C254.135 250.932 254.088 250.922 254.041 250.928C253.994 250.935 253.951 250.958 253.921 250.994C253.89 251.03 253.873 251.076 253.874 251.124C253.974 258.005 254.217 275.561 254.3 281.625L254.31 282.278C254.313 282.72 254.152 283.148 253.857 283.476C253.561 283.804 253.155 284.01 252.716 284.051L247.326 284.543C247.271 284.548 247.217 284.55 247.163 284.55Z" fill="#222222"/>
<path d="M248.262 164.688C246.593 165.684 245.595 167.514 245.022 169.376C243.961 172.824 243.322 176.389 243.12 179.992L242.515 190.779L235.018 219.378C241.515 224.897 245.263 223.643 254.01 219.129C262.757 214.614 263.756 220.634 263.756 220.634L265.505 196.3L268.004 169.709C267.443 169.031 266.808 168.418 266.111 167.882C263.802 166.079 261.114 164.826 258.252 164.216C255.389 163.607 252.427 163.659 249.587 164.366L248.262 164.688Z" fill="url(#paint2_linear)"/>
<path d="M245.827 198.085C246.029 198.161 246.224 198.253 246.412 198.36L263.678 189.684L263.965 184.984L271.087 184.491L271.469 195.206L248.394 202.866C248.206 203.677 247.776 204.412 247.162 204.972C246.547 205.532 245.778 205.891 244.955 206.001C244.133 206.111 243.296 205.967 242.557 205.589C241.818 205.21 241.211 204.614 240.817 203.881C240.424 203.148 240.262 202.312 240.353 201.484C240.444 200.656 240.784 199.875 241.328 199.246C241.872 198.617 242.594 198.169 243.397 197.961C244.201 197.754 245.049 197.797 245.827 198.085Z" fill="#FFB8B8"/>
<path d="M267.879 169.831C272.127 171.336 272.876 187.643 272.876 187.643C267.878 184.884 261.88 189.4 261.88 189.4C261.88 189.4 260.631 185.135 259.131 179.616C258.679 178.063 258.624 176.421 258.974 174.842C259.323 173.263 260.065 171.798 261.13 170.584C261.13 170.584 263.631 168.324 267.879 169.831Z" fill="#F9A826"/>
<path d="M262.906 153.852C261.714 152.895 260.089 154.634 260.089 154.634L259.135 146.022C259.135 146.022 253.178 146.739 249.365 145.783C245.553 144.828 244.957 149.252 244.957 149.252C244.76 147.465 244.721 145.664 244.838 143.87C245.076 141.717 248.174 139.564 253.655 138.128C259.135 136.693 261.995 142.913 261.995 142.913C265.808 144.826 264.097 154.809 262.906 153.852Z" fill="#222222"/>
</g>
<defs>
<filter id="filter0_d" x="-1" y="0" width="312" height="314" filterUnits="userSpaceOnUse" color-interpolation-filters="sRGB">
<feFlood flood-opacity="0" result="BackgroundImageFix"/>
<feColorMatrix in="SourceAlpha" type="matrix" values="0 0 0 0 0 0 0 0 0 0 0 0 0 0 0 0 0 0 127 0"/>
<feOffset dx="5" dy="10"/>
<feGaussianBlur stdDeviation="5.5"/>
<feColorMatrix type="matrix" values="0 0 0 0 0 0 0 0 0 0 0 0 0 0 0 0 0 0 0.25 0"/>
<feBlend mode="normal" in2="BackgroundImageFix" result="effect1_dropShadow"/>
<feBlend mode="normal" in="SourceGraphic" in2="effect1_dropShadow" result="shape"/>
</filter>
<linearGradient id="paint0_linear" x1="5" y1="261.251" x2="71.9482" y2="261.251" gradientUnits="userSpaceOnUse">
<stop stop-color="#FCAD00"/>
<stop offset="1" stop-color="#FDC900"/>
</linearGradient>
<linearGradient id="paint1_linear" x1="37.9209" y1="250.041" x2="75.0929" y2="250.041" gradientUnits="userSpaceOnUse">
<stop stop-color="#FCAD00"/>
<stop offset="1" stop-color="#FDC900"/>
</linearGradient>
<linearGradient id="paint2_linear" x1="251.511" y1="163.795" x2="251.511" y2="223.037" gradientUnits="userSpaceOnUse">
<stop stop-color="#FCAF00"/>
<stop offset="1" stop-color="#FDC800"/>
</linearGradient>
<clipPath id="clip0">
<rect width="290" height="292" fill="white" transform="translate(5 1)"/>
</clipPath>
</defs>
</svg>
