<svg width="124" height="124" viewBox="0 0 124 124" fill="none" xmlns="http://www.w3.org/2000/svg">
<g clip-path="url(#clip0)">
<path d="M78.1749 12.9954C78.1749 11.2889 76.7922 9.90625 75.0858 9.90625H42.3603C40.6538 9.90625 39.2711 11.2889 39.2711 12.9954V32.6369C39.2711 34.3434 40.6538 35.7261 42.3603 35.7261H71.9966V44.4523L42.3603 74.0981L34.7272 66.4618C34.0802 65.8147 33.1748 65.4889 32.2683 65.5688C31.3568 65.6499 30.5281 66.131 30.0058 66.8823L0.552736 109.241C-0.103808 110.185 -0.181243 111.415 0.351736 112.435C0.884303 113.455 1.93955 114.093 3.08953 114.093H120.903C120.906 114.093 120.91 114.093 120.911 114.093C122.618 114.093 124 112.71 124 111.004C124 110.269 123.744 109.595 123.316 109.065L78.1749 44.7554V12.9954ZM45.4494 29.5478V16.0845H71.9966V29.5478H45.4494ZM8.99967 107.915L32.9693 73.4428L40.1752 80.652C40.7548 81.2311 41.5406 81.5569 42.3603 81.5569C43.1795 81.5569 43.9654 81.2311 44.5449 80.652L74.6706 50.5165L114.96 107.915H8.99967V107.915Z" fill="white"/>
</g>
<defs>
<clipPath id="clip0">
<rect width="124" height="124" fill="white"/>
</clipPath>
</defs>
</svg>
