<svg width="585" height="368" viewBox="0 0 585 368" fill="none" xmlns="http://www.w3.org/2000/svg">
<g clip-path="url(#clip0)">
<path d="M581.336 253.498C575.466 267.637 563.185 280.408 550.003 292.503C538.414 303.137 526.018 313.414 512.815 323.332C509.156 326.085 505.438 328.804 501.663 331.488L499.039 333.341C496.714 334.99 494.348 336.623 491.943 338.24L491.655 338.436C489.322 340.026 486.968 341.601 484.594 343.16C476.828 348.27 468.618 353.345 459.543 357.547C456.451 358.982 453.261 360.319 449.958 361.516C448.171 362.167 446.347 362.776 444.484 363.344C441.434 364.273 438.3 365.083 435.028 365.749C434.482 365.863 433.93 365.971 433.379 366.074C430.029 366.704 426.638 367.164 423.211 367.479C410.652 368.63 397.68 367.788 385.101 365.816C378.813 364.83 372.624 363.561 366.636 362.115C365.899 361.94 365.167 361.759 364.43 361.599C344.038 356.488 324.892 349.55 304.356 344.672C297.278 342.989 290.063 341.561 282.711 340.388C279.124 339.816 275.517 339.3 271.889 338.839C263.349 337.776 254.702 337.063 246.018 336.702C234.309 336.186 222.219 336.408 211.077 338.457C209.593 338.729 208.128 339.035 206.681 339.376C204.847 339.806 203.046 340.296 201.28 340.847C196.52 342.388 191.886 344.298 187.423 346.562C186.541 346.995 185.67 347.434 184.799 347.878C182.068 349.272 179.373 350.696 176.636 352.08C171.711 354.662 166.586 356.841 161.31 358.595C158.42 359.509 155.481 360.26 152.508 360.845C144.638 362.425 136.264 363.049 127.853 363.091C123.797 363.091 119.737 363.003 115.722 362.791H115.598C114.227 362.719 112.851 362.636 111.475 362.533C105.209 362.105 98.9627 361.444 92.8094 360.541C71.7265 357.443 51.7309 351.589 35.6468 342.659C13.8011 330.538 -0.0721459 312.465 2.00987 294.408C3.50439 281.4 12.7858 269.32 21.5932 257.494C37.9762 235.472 53.3233 212.949 61.3988 189.209C67.9489 169.938 69.9021 149.563 84.9761 132.244C89.805 126.7 95.9789 121.641 103.168 117.207C108.542 113.911 114.174 111.059 120.01 108.679C126.605 105.973 133.39 103.756 140.309 102.046C146.306 100.555 152.384 99.4109 158.511 98.6179C161.841 98.1843 165.211 97.8487 168.602 97.6216C171.213 97.4392 173.836 97.3239 176.471 97.2757H176.879C178.49 97.2448 180.101 97.2448 181.713 97.2757C193.462 97.4579 205.179 98.5609 216.756 100.574C224.002 101.787 231.186 103.274 238.221 104.911C242.419 105.884 246.58 106.905 250.702 107.972C251.96 108.297 253.217 108.627 254.459 108.963C283.793 116.835 309.602 127.707 337.864 136.627C338.008 136.673 338.147 136.72 338.291 136.756C344.092 138.543 349.982 140.025 355.937 141.195C360.312 142.073 364.786 142.832 369.336 143.498C376.304 144.53 383.421 145.346 390.589 146.048L392.171 146.203C402.69 147.235 413.301 148.004 423.608 148.902C427.267 149.223 430.895 149.553 434.471 149.935C436.739 150.162 438.986 150.403 441.212 150.658C442.81 150.843 444.412 151.029 446.015 151.225C447.618 151.422 449.313 151.628 450.962 151.84C452.034 151.974 453.101 152.113 454.173 152.263C460.667 153.125 467.144 154.09 473.55 155.195C477.446 155.866 481.322 156.589 485.151 157.368C487.923 157.933 490.672 158.528 493.396 159.155C495.417 159.612 497.42 160.094 499.405 160.6C515.541 164.663 530.641 169.99 543.653 177.181C577.445 195.811 592.565 226.459 581.336 253.498Z" fill="white" fill-opacity="0.22"/>
<path d="M128.317 46.6659C134.473 46.6659 139.464 41.6668 139.464 35.5002C139.464 29.3335 134.473 24.3344 128.317 24.3344C122.161 24.3344 117.17 29.3335 117.17 35.5002C117.17 41.6668 122.161 46.6659 128.317 46.6659Z" fill="white" fill-opacity="0.22"/>
<path d="M356.159 22.3315C362.315 22.3315 367.306 17.3324 367.306 11.1657C367.306 4.99908 362.315 0 356.159 0C350.002 0 345.012 4.99908 345.012 11.1657C345.012 17.3324 350.002 22.3315 356.159 22.3315Z" fill="white" fill-opacity="0.22"/>
<path d="M491.258 47.337C497.414 47.337 502.405 42.3379 502.405 36.1712C502.405 30.0046 497.414 25.0055 491.258 25.0055C485.101 25.0055 480.111 30.0046 480.111 36.1712C480.111 42.3379 485.101 47.337 491.258 47.337Z" fill="white" fill-opacity="0.22"/>
<path d="M18.6815 81.2266C28.9989 81.2266 37.3629 72.8485 37.3629 62.5137C37.3629 52.1789 28.9989 43.8009 18.6815 43.8009C8.36397 43.8009 0 52.1789 0 62.5137C0 72.8485 8.36397 81.2266 18.6815 81.2266Z" fill="white" fill-opacity="0.22"/>
<path d="M36.5899 173.629C46.9074 173.629 55.2713 165.251 55.2713 154.916C55.2713 144.582 46.9074 136.204 36.5899 136.204C26.2724 136.204 17.9084 144.582 17.9084 154.916C17.9084 165.251 26.2724 173.629 36.5899 173.629Z" fill="white" fill-opacity="0.22"/>
<path d="M537.985 139.616C548.302 139.616 556.666 131.238 556.666 120.903C556.666 110.568 548.302 102.19 537.985 102.19C527.667 102.19 519.303 110.568 519.303 120.903C519.303 131.238 527.667 139.616 537.985 139.616Z" fill="white" fill-opacity="0.22"/>
<path d="M182.614 123.556C182.707 125.127 182.615 126.704 182.341 128.254C181.311 133.049 176.951 136.343 172.73 138.841C168.509 141.34 163.871 143.704 161.361 147.922C158.336 153.017 159.3 159.867 162.851 164.626C166.401 169.386 172.029 172.22 177.822 173.402C188.386 175.586 199.956 172.519 207.877 165.189C215.798 157.859 219.771 146.404 217.828 135.765C213.53 136.369 209.701 132.569 208.31 128.45C206.918 124.331 207.207 119.865 206.666 115.545C206.626 114.814 206.407 114.105 206.027 113.48C205.424 112.643 204.357 112.303 203.362 112.029C198.394 110.661 190.035 107.667 184.887 108.813C180.249 109.877 182.537 119.654 182.614 123.556Z" fill="#BE6F72"/>
<path opacity="0.1" d="M182.614 123.556C182.707 125.127 182.615 126.704 182.341 128.254C181.311 133.049 176.951 136.343 172.73 138.841C168.509 141.34 163.871 143.704 161.361 147.922C158.336 153.017 159.3 159.867 162.851 164.626C166.401 169.386 172.029 172.22 177.822 173.402C188.386 175.586 199.956 172.519 207.877 165.189C215.798 157.859 219.771 146.404 217.828 135.765C213.53 136.369 209.701 132.569 208.31 128.45C206.918 124.331 207.207 119.865 206.666 115.545C206.626 114.814 206.407 114.105 206.027 113.48C205.424 112.643 204.357 112.303 203.362 112.029C198.394 110.661 190.035 107.667 184.887 108.813C180.249 109.877 182.537 119.654 182.614 123.556Z" fill="black"/>
<path d="M176.611 352.09C171.686 354.672 166.56 356.851 161.284 358.605C158.394 359.519 155.456 360.271 152.482 360.856C152.271 356.886 152.487 352.906 153.126 348.983C153.528 346.727 154.121 344.492 154.275 342.205C154.494 338.904 153.789 335.607 152.24 332.686C157.981 331.901 163.433 330.621 169.2 330.998L169.566 331.023C170.251 331.041 170.93 331.168 171.576 331.4C172.463 331.83 173.216 332.494 173.756 333.321C174.052 333.726 174.326 334.148 174.575 334.585C176.203 337.404 176.822 340.656 176.951 344.006C177.011 346.705 176.898 349.406 176.611 352.09Z" fill="#BE6F72"/>
<path d="M206.661 339.381C204.826 339.811 203.026 340.302 201.26 340.852C196.499 342.393 191.866 344.304 187.402 346.567C187.112 345.161 186.97 343.728 186.979 342.292C189.61 340.475 192.578 339.207 195.708 338.562C198.837 337.917 202.064 337.91 205.197 338.54C205.616 338.59 206.014 338.751 206.351 339.004C206.474 339.113 206.578 339.24 206.661 339.381Z" fill="#BE6F72"/>
<path d="M215.52 313.322C215.169 316.698 214.654 320.085 213.458 323.26C212.165 326.667 210.062 329.97 210.33 333.61C210.448 335.189 210.984 336.903 211.062 338.467C209.578 338.739 208.112 339.045 206.666 339.386C204.831 339.816 203.031 340.307 201.265 340.857C196.504 342.398 191.871 344.309 187.407 346.572C186.526 347.005 185.655 347.444 184.784 347.888C184.423 347.842 184.068 347.785 183.707 347.718C181.13 347.248 178.419 346.092 176.961 344.027C176.627 343.552 176.365 343.03 176.183 342.478C175.343 339.964 176.219 336.831 174.472 334.838L174.389 334.911L174.328 334.952C173.371 335.82 172.32 336.579 171.194 337.213C168.633 338.665 165.795 339.562 162.865 339.844C159.935 340.127 156.979 339.79 154.188 338.854C153.082 338.477 152.014 337.997 150.998 337.419C148.637 336.072 146.36 333.806 146.545 331.101C146.648 329.594 147.509 328.148 147.277 326.656C147.107 325.588 146.406 324.7 145.88 323.755C142.433 317.561 146.545 309.595 144.381 302.864C144.329 302.704 144.272 302.544 144.216 302.389C144.056 301.95 143.876 301.527 143.7 301.104C143.257 300.118 142.762 299.147 142.371 298.135C142.045 297.285 141.786 296.41 141.598 295.518C141.111 292.929 140.938 290.291 141.082 287.661C141.082 280.729 142.319 273.631 144.082 266.951C144.396 265.763 144.746 264.086 145.21 262.258C145.662 260.332 146.273 258.447 147.035 256.621C148.065 254.247 149.467 252.352 151.384 251.903C154.27 251.227 158.682 252.657 161.609 253.008L173.178 254.391L196.312 257.163C200.306 257.643 204.501 258.196 207.794 260.446C208.011 260.596 208.222 260.751 208.433 260.916C209.303 261.603 210.083 262.397 210.753 263.28C210.99 263.585 211.216 263.905 211.433 264.23C212.183 265.381 212.822 266.602 213.34 267.875C216.21 274.782 216.277 282.489 216.298 289.969C216.298 297.774 216.323 305.574 215.52 313.322Z" fill="#3F3D56"/>
<path opacity="0.1" d="M171.168 337.244C170.473 334.56 169.004 330.672 168.788 329.614C168.061 326.064 167.535 322.476 167.211 318.867C166.639 312.435 165.608 303.38 167.875 297.263C170.004 298.399 171.874 301.615 172.859 303.809C176.425 311.763 172.41 321.53 175.76 329.578C176.011 330.06 176.166 330.586 176.219 331.127C176.161 331.813 175.915 332.471 175.508 333.026L174.379 334.905L171.168 337.244Z" fill="black"/>
<path d="M245.389 91.6593C249.182 85.4647 254.377 79.3734 254.052 72.1308C253.934 69.5498 253.089 67.0255 252.444 64.496C250.598 57.1753 250.477 49.525 252.089 42.149C258.462 41.1235 264.984 42.5869 270.312 46.2375C271.997 47.4041 273.594 48.8547 274.336 50.7698C275.022 52.5353 274.909 54.5021 274.785 56.3914C274.501 60.7328 274.115 65.3633 271.445 68.7806C270.616 69.8492 269.595 70.7526 268.786 71.8314C267.606 73.3801 266.915 75.2694 266.24 77.1123L257.479 100.987C253.058 113.02 248.265 125.606 238.525 133.932C238.288 134.134 231.31 124.207 230.733 123.21C228.398 119.127 229.419 117.403 232.243 113.986C237.814 107.228 240.839 99.0773 245.389 91.6593Z" fill="#BE6F72"/>
<path d="M144.989 295.157C144.959 296.939 144.809 298.717 144.54 300.479C144.448 301.129 144.339 301.775 144.21 302.42C142.453 311.609 138.078 320.348 135.017 329.299C130.981 341.115 129.209 351.368 127.802 363.101C123.746 363.101 119.685 363.013 115.67 362.802H115.547C114.176 362.729 112.8 362.647 111.424 362.544C112.666 351.6 110.393 340.119 112.614 329.165C113.511 324.757 115.042 320.477 115.964 316.089C116.248 314.798 116.464 313.491 116.608 312.176C116.737 310.927 116.804 309.631 117.366 308.506C117.417 308.397 117.476 308.292 117.541 308.191C118.035 307.412 118.647 306.716 119.355 306.126C125.634 300.611 133.315 296.943 141.546 295.528C142.716 295.368 143.855 295.234 144.989 295.157Z" fill="#FBBEBE"/>
<path opacity="0.1" d="M144.989 295.157C144.959 296.939 144.809 298.717 144.54 300.479C144.448 301.129 144.339 301.775 144.21 302.42C142.453 311.609 138.078 320.348 135.017 329.299C130.981 341.115 129.209 351.368 127.802 363.101C123.746 363.101 119.685 363.013 115.67 362.802H115.547C114.176 362.729 112.8 362.647 111.424 362.544C112.666 351.6 110.393 340.119 112.614 329.165C113.511 324.757 115.042 320.477 115.964 316.089C116.248 314.798 116.464 313.491 116.608 312.176C116.737 310.927 116.804 309.631 117.366 308.506C117.417 308.397 117.476 308.292 117.541 308.191C118.035 307.412 118.647 306.716 119.355 306.126C125.634 300.611 133.315 296.943 141.546 295.528C142.716 295.368 143.855 295.234 144.989 295.157Z" fill="black"/>
<path d="M118.86 318.681C118.777 321.549 118.541 324.412 118.154 327.255C116.778 338.875 116.521 351.001 115.578 362.797C114.207 362.724 112.831 362.642 111.455 362.538C105.188 362.11 98.9422 361.449 92.7889 360.546C93.263 357.889 93.7406 355.232 94.2216 352.575C94.8091 349.318 95.3966 346.03 95.2265 342.726C95.0667 339.603 94.2319 336.562 93.5671 333.501C92.1498 326.945 91.3562 319.873 89.0217 313.689C87.8041 310.22 85.8608 307.052 83.3219 304.397C92.9796 300.598 102.261 300.381 112.635 300.783C113.372 300.743 114.103 300.922 114.738 301.3C115.229 301.726 115.595 302.28 115.794 302.9C117.353 306.656 118.331 310.629 118.696 314.68C118.819 316.01 118.875 317.345 118.86 318.681Z" fill="#FBBEBE"/>
<path d="M196.653 120.893C207.753 120.893 216.751 111.879 216.751 100.76C216.751 89.6413 207.753 80.6277 196.653 80.6277C185.552 80.6277 176.554 89.6413 176.554 100.76C176.554 111.879 185.552 120.893 196.653 120.893Z" fill="#BE6F72"/>
<path d="M200.832 147.813C203.409 143.41 205.666 137.912 210.624 136.689C213.422 135.992 216.334 136.942 219.06 137.876C219.85 138.063 220.567 138.48 221.121 139.074C221.524 139.714 221.74 140.454 221.745 141.211C222.608 150.312 222.579 159.475 221.657 168.57C221.003 175.007 219.9 181.414 219.704 187.882C219.431 196.849 220.905 205.815 220.421 214.772C220.055 221.56 218.57 228.229 217.096 234.863L210.912 262.635C210.802 263.495 210.458 264.307 209.918 264.984C209.396 265.463 208.772 265.816 208.093 266.016C199.142 269.186 189.626 270.44 180.161 269.698C170.696 268.955 161.491 266.233 153.142 261.706C150.91 260.477 148.684 259.058 147.23 256.962C145.169 253.989 144.978 250.055 145.648 246.493C146.318 242.931 147.766 239.571 148.74 236.076C150.245 230.656 150.601 224.998 150.941 219.381C151.394 211.989 151.848 204.551 151.059 197.184C150.518 192.11 149.39 187.113 148.539 182.08C147.287 174.494 146.56 166.83 146.365 159.144C146.236 154.555 146.447 149.46 149.617 146.151C151.163 144.54 153.224 143.57 155.321 142.785C158.841 141.484 162.773 140.72 166.329 141.908C169.885 143.095 172.751 146.832 171.911 150.492C171.524 152.191 170.426 153.677 170.158 155.402C169.803 157.683 171.009 159.98 172.735 161.524C182.022 169.928 196.199 155.784 200.832 147.813Z" fill="#E3E8F4"/>
<path d="M199.703 135.858C202.143 131.203 205.267 125.495 210.376 126.726C212.237 127.17 214.247 127.954 215.963 127.123C216.586 126.824 217.102 126.334 217.73 126.055C219.431 125.306 221.637 126.225 223.142 125.136C224.09 124.449 224.399 123.2 224.719 122.064C225.16 120.519 225.733 119.023 226.428 117.591C228.301 113.734 232.682 116.518 235.484 119.762C236.675 121.135 238.344 121.997 240.035 122.668C242.462 123.634 245.126 124.274 247.688 123.747C250.249 123.221 252.645 121.28 253.052 118.694C252.965 122.581 249.27 125.296 248.234 129.049C247.842 130.453 247.878 131.945 247.605 133.38C246.909 137.045 244.297 139.987 242.014 142.94C234.722 152.438 230.064 163.696 228.511 175.575C228.406 176.985 228.111 178.374 227.635 179.705C227.13 180.726 226.559 181.712 225.924 182.658C222.147 189.049 223.312 197.112 224.595 204.411C226.6 215.845 228.599 227.047 231.846 238.192C232.902 241.806 234.448 246.094 231.535 248.48C229.797 249.904 227.524 250.957 225.378 251.98C221.348 253.905 217.63 256.427 214.35 259.46C213.175 260.544 212.015 261.763 211.587 263.306C211.185 264.757 211.474 266.352 210.959 267.761C209.963 270.484 206.942 267.525 207.181 264.636C207.418 261.752 208.249 258.818 208.191 255.904C208.129 252.935 207.161 250.05 207.021 247.082C206.887 243.721 207.877 240.422 208.928 237.232C211.855 228.348 215.391 219.547 216.406 210.25C217.421 200.953 215.525 190.799 208.938 184.165C201.121 176.257 196.781 165.535 188.402 158.272C187.072 157.121 185.567 155.691 185.789 153.946C185.942 153.177 186.28 152.458 186.773 151.85C189.649 147.782 193.473 144.463 196.565 140.571C197.746 139.084 198.837 137.511 199.703 135.858Z" fill="url(#paint0_linear)"/>
<path d="M174.054 135.569C173.539 136.085 173.183 136.797 172.586 137.241C171.887 137.673 171.091 137.92 170.272 137.959C167.239 138.42 164.18 138.694 161.114 138.779C158.537 138.779 155.863 138.552 153.384 139.26C149.926 140.24 147.163 142.976 145.432 146.125C143.7 149.274 142.881 152.836 142.216 156.382C141.752 158.855 141.357 161.339 141.03 163.832C140.182 170.288 147.269 173.606 151.132 168.364C153.605 165.003 155.847 161.287 159.377 159.041C161.001 158.009 162.825 157.327 164.459 156.321C167.865 154.22 170.225 150.823 172.493 147.545C174.163 145.113 178.991 140.364 179.373 137.453C179.697 134.67 175.858 133.313 174.054 135.569Z" fill="url(#paint1_linear)"/>
<path d="M192.009 86.9772C192.646 87.3601 193.255 87.7861 193.834 88.2523C197.333 90.6991 202.017 90.2449 206.248 89.6873C207.547 89.5222 208.882 89.3363 209.995 88.6549C211.783 87.5502 212.623 85.2789 212.448 83.1779C212.273 81.0769 211.216 79.1411 209.928 77.4995C208.221 75.3271 206.092 73.5244 203.669 72.2006C201.246 70.8767 198.581 70.0592 195.833 69.7976C194.411 69.6108 192.964 69.7647 191.612 70.2467C189.948 70.9332 188.696 72.3477 187.16 73.2923C182.63 76.0799 175.652 74.841 172.73 79.2908C170.591 82.5739 172.117 87.034 171.107 90.8075C170.354 93.6261 168.185 96.1917 168.602 99.067C168.834 100.616 169.803 101.968 170.576 103.352C172.351 106.532 173.172 110.158 172.941 113.795C174.925 115.199 177.693 113.015 178.244 110.651C178.796 108.287 178.162 105.767 178.631 103.383C179.46 99.196 183.15 96.1246 184.815 92.2839C186.011 89.5325 187.959 84.8865 192.009 86.9772Z" fill="#3F3D56"/>
<path d="M143.278 132.802C143.123 133.741 143.025 134.779 143.546 135.574C144.576 137.122 146.937 136.565 148.792 136.797C151.683 137.153 153.817 139.895 154.378 142.775C154.94 145.655 154.27 148.588 153.538 151.416C151.882 157.828 149.91 164.148 147.622 170.377C141.469 169.649 134.991 167.28 131.724 162.02C128.755 157.234 129.059 151.138 127.173 145.831C125.849 142.094 123.473 138.841 121.123 135.651C124.9 136.126 127.601 131.8 127.822 127.991C128.044 124.181 126.848 120.314 127.663 116.593C127.853 115.71 142.742 118.492 144.19 119.499C148.375 122.405 143.937 128.765 143.278 132.802Z" fill="#FBBEBE"/>
<path opacity="0.1" d="M143.278 132.802C143.123 133.741 143.025 134.779 143.546 135.574C144.576 137.122 146.937 136.565 148.792 136.797C151.683 137.153 153.817 139.895 154.378 142.775C154.94 145.655 154.27 148.588 153.538 151.416C151.882 157.828 149.91 164.148 147.622 170.377C141.469 169.649 134.991 167.28 131.724 162.02C128.755 157.234 129.059 151.138 127.173 145.831C125.849 142.094 123.473 138.841 121.123 135.651C124.9 136.126 127.601 131.8 127.822 127.991C128.044 124.181 126.848 120.314 127.663 116.593C127.853 115.71 142.742 118.492 144.19 119.499C148.375 122.405 143.937 128.765 143.278 132.802Z" fill="black"/>
<path d="M139.964 126.571C151.064 126.571 160.063 117.557 160.063 106.439C160.063 95.3197 151.064 86.3062 139.964 86.3062C128.864 86.3062 119.865 95.3197 119.865 106.439C119.865 117.557 128.864 126.571 139.964 126.571Z" fill="#FBBEBE"/>
<path d="M133.775 129.911C134.506 128.765 133.259 127.165 133.831 125.931C134.171 125.188 135.032 124.867 135.697 124.382C136.531 123.703 137.196 122.839 137.64 121.858C140.769 115.835 141.716 108.912 140.32 102.268C139.846 100.038 139.423 97.0744 141.459 96.073C142.023 95.8207 142.641 95.7142 143.257 95.7632C146.926 95.882 150.472 98.3443 154.033 97.4719C155.249 97.1409 156.334 96.4459 157.145 95.48C157.955 94.5142 158.452 93.3234 158.568 92.0671C158.8 88.7324 156.306 85.8725 153.853 83.627C149.436 79.5592 142.706 78.6558 136.707 78.5578L125.55 78.3719C121.978 78.31 117.974 78.4235 115.49 80.9891C111.913 84.6801 113.712 90.7198 113.197 95.8355C112.759 99.9185 110.72 103.66 107.528 106.237C105.214 108.085 102.029 109.851 102.07 112.804C102.07 113.836 102.514 114.775 102.797 115.751C103.936 119.612 102.848 123.882 100.663 127.263C98.4783 130.644 95.2832 133.246 91.9694 135.522C90.1966 136.735 88.362 137.902 86.9602 139.549C85.4235 141.451 84.5109 143.782 84.3474 146.223C84.1269 148.089 84.5098 149.976 85.44 151.607C87.6199 155.097 92.8507 155.608 96.4324 153.585C100.014 151.561 102.199 147.731 103.647 143.88C104.513 141.593 105.394 138.976 107.61 137.948C110.414 136.642 113.691 138.707 115.516 141.211C117.34 143.715 118.464 146.771 120.798 148.804C124.457 151.995 130.683 151.478 133.775 147.731C135.986 145.041 136.475 141.319 136.351 137.835C136.29 134.997 135.394 132.241 133.775 129.911Z" fill="#3F3D56"/>
<path d="M140.99 156.15C138.696 156.641 136.3 155.556 134.594 153.936C132.888 152.315 131.739 150.224 130.543 148.2C127.512 143.096 124.037 138.27 120.159 133.777C116.778 129.87 112.073 125.9 107.054 127.108C105.373 127.594 103.814 128.429 102.477 129.56C98.0517 133.07 94.5874 137.648 92.4089 142.864C90.2304 148.081 89.409 153.766 90.0214 159.387C90.4131 162.675 91.3046 165.891 91.6757 169.195C91.9256 171.918 91.9979 174.655 91.8921 177.387C91.753 185.709 91.4696 194.51 86.9912 201.52C80.0494 212.361 76.3337 225.308 71.2369 237.139C68.4849 243.535 66.8358 250.344 65.2176 257.117C64.259 261.136 63.3022 265.154 62.3471 269.17L56.1114 295.446C55.4672 298.156 54.823 300.995 55.5032 303.705C56.5339 307.752 60.3321 310.581 64.3363 311.732C68.3406 312.884 72.582 312.687 76.7408 312.724C84.6978 312.801 92.7167 313.792 100.184 316.559C102.318 317.349 104.446 318.294 106.719 318.479C108.991 318.665 111.254 318.072 113.382 317.246C119.19 314.995 124.169 311.051 129.518 307.866C132.859 305.849 136.378 304.144 140.031 302.771C141.866 302.084 143.834 301.434 145.097 299.932C146.05 298.801 146.478 297.325 146.792 295.879C148.534 287.744 147.364 279.314 146.792 271.013C146.22 262.713 141.268 253.942 145.365 246.705C146.189 245.244 147.174 243.84 147.596 242.219C148.153 240.102 147.684 237.826 148.153 235.689C148.498 234.109 149.328 232.689 149.895 231.177C150.884 228.513 151.018 225.612 151.008 222.768C150.985 216.523 150.329 210.296 149.05 204.184C147.426 196.441 152.796 188.785 155.873 181.471C156.976 178.853 158.537 176.381 158.996 173.578C159.408 171.048 158.877 168.472 158.481 165.938C157.888 162.009 157.647 158.036 157.759 154.065C157.857 150.503 158.233 146.874 157.383 143.41C156.533 139.946 154.105 136.586 150.616 135.873C150.225 135.758 149.813 135.732 149.411 135.795C149.008 135.858 148.624 136.01 148.287 136.24C147.884 136.635 147.6 137.136 147.468 137.685C146.334 141.164 146.555 144.912 145.921 148.526C145.288 152.139 144.545 155.386 140.99 156.15Z" fill="#D72C32"/>
<path d="M92.356 178.322C92.5672 176.892 91.9024 174.992 90.4595 175.044C89.1299 175.095 88.5372 176.763 88.5424 178.1C88.5475 179.437 88.7279 180.97 87.7848 181.909C86.9499 182.74 85.5688 182.715 84.5999 183.391C84.258 183.635 83.9798 183.958 83.7887 184.333C83.5977 184.708 83.4994 185.123 83.5022 185.543C83.5022 186.261 83.8269 186.948 83.8475 187.665C83.8681 188.383 83.3889 189.214 82.6777 189.167C82.3124 189.781 82.1603 190.499 82.2452 191.209C82.33 191.919 82.647 192.58 83.1466 193.091C83.5177 193.452 84.0021 193.762 84.1258 194.268C84.165 194.622 84.137 194.981 84.0433 195.326C83.8269 196.745 84.8061 198.335 86.2336 198.49C85.4348 199.063 85.5945 200.405 86.3263 201.071C87.0581 201.737 88.1095 201.866 89.0938 201.866C91.3278 201.854 93.537 201.396 95.5924 200.519C96.2961 200.286 96.9185 199.856 97.3858 199.28C97.6025 198.983 97.7065 198.618 97.6792 198.251C97.6518 197.884 97.4948 197.539 97.2363 197.277C98.2361 197.442 99.4369 197.535 100.091 196.761C101.004 195.677 100.024 194.071 99.0607 193.023C99.4603 192.964 99.8338 192.788 100.134 192.518C100.435 192.247 100.65 191.895 100.752 191.503C100.854 191.111 100.839 190.698 100.709 190.315C100.579 189.932 100.339 189.596 100.019 189.348C99.6894 189.105 99.241 188.894 99.1946 188.486C99.1483 188.078 99.4935 187.815 99.6378 187.453C99.9677 186.643 99.2153 185.817 98.4886 185.327C96.7673 184.181 94.2318 184.201 92.7012 183.045C91.1706 181.889 92.1344 179.87 92.356 178.322Z" fill="#BE6F72"/>
<path d="M198.673 99.991C197.425 100.117 196.169 100.146 194.916 100.079C194.702 100.055 194.488 100.117 194.319 100.25C194.151 100.383 194.041 100.578 194.014 100.791L191.618 118.797C191.433 120.104 190.899 121.336 190.072 122.364C189.389 123.181 188.882 124.131 188.582 125.153C188.281 126.175 188.194 127.248 188.324 128.305V158.891C188.324 158.891 188.17 162.969 191.298 162.969C195.042 163.441 198.83 163.441 202.574 162.969C202.574 162.969 205.079 162.494 205.079 158.731V128.615C205.27 127.564 205.23 126.485 204.963 125.451C204.696 124.417 204.208 123.453 203.532 122.627C202.733 121.596 202.216 120.373 202.033 119.081L199.544 100.698C199.515 100.492 199.41 100.303 199.248 100.172C199.086 100.041 198.88 99.976 198.673 99.991Z" fill="#3F3D56"/>
<path opacity="0.1" d="M198.673 99.991C197.425 100.117 196.169 100.146 194.916 100.079C194.702 100.055 194.488 100.117 194.319 100.25C194.151 100.383 194.041 100.578 194.014 100.791L191.618 118.797C191.433 120.104 190.899 121.336 190.072 122.364C189.389 123.181 188.882 124.131 188.582 125.153C188.281 126.175 188.194 127.248 188.324 128.305V158.891C188.324 158.891 188.17 162.969 191.298 162.969C195.042 163.441 198.83 163.441 202.574 162.969C202.574 162.969 205.079 162.494 205.079 158.731V128.615C205.27 127.564 205.23 126.485 204.963 125.451C204.696 124.417 204.208 123.453 203.532 122.627C202.733 121.596 202.216 120.373 202.033 119.081L199.544 100.698C199.515 100.492 199.41 100.303 199.248 100.172C199.086 100.041 198.88 99.976 198.673 99.991Z" fill="black"/>
<path d="M198.688 128.853H194.89C191.745 128.853 189.195 131.406 189.195 134.557V148.872C189.195 152.022 191.745 154.576 194.89 154.576H198.688C201.833 154.576 204.383 152.022 204.383 148.872V134.557C204.383 131.406 201.833 128.853 198.688 128.853Z" fill="#F9A826"/>
<path d="M249.728 22.1869C248.627 22.7933 247.479 23.3112 246.296 23.7356C246.091 23.7969 245.918 23.9356 245.813 24.1225C245.708 24.3094 245.68 24.5297 245.734 24.737L250.445 42.2884C250.782 43.5623 250.767 44.9039 250.404 46.1703C250.086 47.1877 249.982 48.2599 250.097 49.3196C250.212 50.3793 250.545 51.4037 251.074 52.3288L262.834 80.5555C262.834 80.5555 264.256 84.3755 267.147 83.1675C270.787 82.1561 274.285 80.6888 277.557 78.8003C277.557 78.8003 279.686 77.3962 278.243 73.9273L266.663 46.1342C266.435 45.0907 265.984 44.1091 265.341 43.2571C264.697 42.4051 263.877 41.703 262.937 41.1992C261.804 40.5568 260.857 39.6299 260.19 38.5097L250.826 22.507C250.72 22.3219 250.546 22.1851 250.342 22.1255C250.137 22.0658 249.917 22.0878 249.728 22.1869Z" fill="#3F3D56"/>
<path d="M260.848 48.8219L257.343 50.287C254.44 51.5002 253.069 54.8406 254.28 57.748L259.784 70.9586C260.995 73.866 264.329 75.2394 267.232 74.0262L270.737 72.5611C273.64 71.3479 275.011 68.0075 273.8 65.1001L268.296 51.8895C267.085 48.9821 263.75 47.6087 260.848 48.8219Z" fill="#F9A826"/>
<path d="M105.106 130.443C99.5657 132.729 97.3754 139.843 98.6741 145.697C99.9728 151.551 103.884 156.429 107.698 161.07L118.386 174.13C121.339 177.743 124.57 181.548 129.075 182.808C135.661 184.65 142.247 180.448 147.942 176.649C164.94 165.303 183.109 155.826 202.136 148.381C203.996 147.658 205.903 146.925 207.434 145.635C210.608 142.961 211.5 138.031 209.732 134.278C207.964 130.525 203.847 128.083 199.698 128.053C195.55 128.022 191.514 130.221 189.02 133.545C187.83 135.13 186.959 136.942 185.81 138.552C182.903 142.599 178.368 145.103 173.931 147.364C163.232 152.832 152.218 157.658 140.948 161.818C138.887 162.572 136.563 163.289 134.62 162.293C133.429 161.679 132.625 160.517 131.904 159.382C128.616 154.198 126.001 148.616 124.122 142.77C122.715 138.382 121.576 133.602 118.196 130.484C113.403 126.065 104.724 127.123 101.132 132.549C101.132 132.549 96.9219 138.718 99.4987 141.299C102.075 143.88 105.106 130.443 105.106 130.443Z" fill="#FBBEBE"/>
<path d="M394.135 109.082C394.887 111.09 394.908 113.289 394.8 115.431C394.666 118.043 394.011 121.109 391.589 122.106C390.012 122.741 388.064 122.261 386.662 123.221C384.962 124.377 385.044 126.865 385.307 128.899C386.034 134.49 386.853 140.287 389.893 145.015C391.527 147.55 393.738 149.661 395.98 151.68C400.448 155.717 405.349 159.66 411.219 161.008C412.175 161.278 413.181 161.32 414.156 161.132C415.118 160.834 415.991 160.302 416.697 159.583C420.098 156.455 421.85 151.989 424.118 147.942C425.721 145.046 427.633 142.264 428.534 139.074C429.277 136.286 429.228 133.346 428.392 130.585C427.556 127.825 425.967 125.353 423.804 123.448C422.799 122.586 421.685 121.863 420.711 120.97C418.166 118.657 416.681 115.338 416.073 111.952C415.465 108.565 415.558 105.081 415.852 101.627C410.698 101.23 405.581 101.855 400.551 102.861C398.314 103.31 395.166 103.517 393.14 104.585C390.862 105.798 393.511 107.352 394.135 109.082Z" fill="#FBBEBE"/>
<path opacity="0.1" d="M394.135 109.082C394.887 111.09 394.908 113.289 394.8 115.431C394.666 118.043 394.011 121.109 391.589 122.106C390.012 122.741 388.064 122.261 386.662 123.221C384.962 124.377 385.044 126.865 385.307 128.899C386.034 134.49 386.853 140.287 389.893 145.015C391.527 147.55 393.738 149.661 395.98 151.68C400.448 155.717 405.349 159.66 411.219 161.008C412.175 161.278 413.181 161.32 414.156 161.132C415.118 160.834 415.991 160.302 416.697 159.583C420.098 156.455 421.85 151.989 424.118 147.942C425.721 145.046 427.633 142.264 428.534 139.074C429.277 136.286 429.228 133.346 428.392 130.585C427.556 127.825 425.967 125.353 423.804 123.448C422.799 122.586 421.685 121.863 420.711 120.97C418.166 118.657 416.681 115.338 416.073 111.952C415.465 108.565 415.558 105.081 415.852 101.627C410.698 101.23 405.581 101.855 400.551 102.861C398.314 103.31 395.166 103.517 393.14 104.585C390.862 105.798 393.511 107.352 394.135 109.082Z" fill="black"/>
<path d="M365.378 124.274C357.009 121.399 353.01 110.166 344.249 108.906C342.868 108.705 341.451 108.782 340.095 108.462C335.05 107.265 332.88 101.421 331.422 96.4395C326.505 79.8328 320.084 63.5823 310.962 48.8599C307.113 42.6653 301.026 37.5754 298.249 30.7923C297.61 29.2436 297.285 27.4782 296.136 26.2547C294.987 25.0313 292.528 24.8558 291.905 26.4148C291.731 26.967 291.692 27.553 291.791 28.1234L292.394 34.5503L281.912 33.6057C280.942 33.44 279.947 33.5108 279.011 33.8121C277.999 34.3191 277.193 35.1595 276.728 36.1919C273.182 42.8666 276.96 51.6113 283.216 55.8339C290.524 60.7638 300.959 61.5123 305.814 68.8684C308.7 73.2459 308.757 78.8778 310.658 83.7664C311.565 86.1048 312.89 88.2523 313.946 90.5185C315.961 94.8392 316.992 99.5368 318.554 104.038C320.79 110.475 324.104 116.474 327.407 122.436C329.953 127.041 332.561 131.728 336.477 135.249C339.054 137.561 342.084 139.275 345.115 140.927C352.567 145.005 361.353 148.928 369.249 145.8C369.702 138.749 367.934 130.887 365.378 124.274Z" fill="#FBBEBE"/>
<path d="M390.79 346.494C390.156 353.231 386.075 359.333 385.121 365.816C378.834 364.83 372.645 363.561 366.656 362.115C365.919 361.94 365.188 361.759 364.451 361.599C367.842 352.307 364.889 341.9 365.785 332.004C365.873 331.054 365.997 330.105 366.162 329.165C373.928 326.512 380.942 322.97 389.084 324.003C389.244 325.655 389.409 327.312 389.569 328.964C389.895 332.264 390.218 335.561 390.538 338.854C390.864 341.387 390.949 343.946 390.79 346.494Z" fill="#FBBEBE"/>
<path d="M444.5 363.344C441.449 364.273 438.316 365.083 435.043 365.749C434.497 365.863 433.946 365.971 433.394 366.075C430.044 366.704 426.653 367.164 423.226 367.479C422.876 360.303 418.073 353.706 417.372 346.34C417.229 344.509 417.248 342.669 417.429 340.842C417.49 340.119 417.563 339.396 417.63 338.674L419.083 323.822C420.24 323.676 421.406 323.619 422.572 323.652C429.271 323.812 435.368 326.718 442.006 328.984C442.5 332.118 442.673 335.294 442.521 338.462C442.269 346.525 440.975 354.687 443.964 362.084C444.134 362.502 444.32 362.92 444.5 363.344Z" fill="#FBBEBE"/>
<path d="M357.509 250.117C358.411 257.158 354.819 263.9 353.262 270.822C352.232 275.401 352.093 280.114 351.953 284.812L351.139 312.951C351.057 315.764 350.985 318.629 351.84 321.329C353.561 326.739 358.864 330.394 364.384 331.695C369.903 332.995 375.675 332.335 381.297 331.591C384.055 331.225 386.93 330.796 389.213 329.201C392.352 327.007 393.723 323.1 394.908 319.455L398.252 309.167C402.102 317.85 400.474 327.343 402.782 336.557C402.931 337.409 403.284 338.212 403.813 338.896C404.787 339.98 406.39 340.15 407.848 340.253C417.949 340.966 428.189 341.673 438.125 339.737C440.856 339.221 443.706 338.385 445.593 336.33C447.788 333.94 448.169 330.425 448.144 327.178C448.004 316.022 443.98 305.259 443.083 294.14C442.696 289.375 442.887 284.585 442.717 279.805C442.583 276.209 442.248 272.625 441.712 269.067C441.542 267.438 441.096 265.849 440.393 264.37C438.847 261.479 435.636 259.91 432.595 258.691C408.972 249.079 382.988 249.172 357.509 250.117Z" fill="#D72C32"/>
<path d="M401.247 111.601C413.485 111.601 423.407 101.663 423.407 89.4034C423.407 77.1442 413.485 67.2061 401.247 67.2061C389.008 67.2061 379.087 77.1442 379.087 89.4034C379.087 101.663 389.008 111.601 401.247 111.601Z" fill="#FBBEBE"/>
<path d="M420.562 128.502C418.918 132.115 416.331 135.729 412.481 136.648C408.941 137.499 405.189 135.791 402.581 133.246C399.974 130.701 398.268 127.397 396.459 124.233C395.14 121.92 393.671 119.587 391.44 118.131C388.389 116.149 384.451 116.2 380.854 116.784C377.257 117.367 373.686 118.41 370.032 118.172C365.481 117.868 360.843 115.591 356.55 117.109C357.942 123.345 357.442 130.2 357.282 136.591C357.309 137.578 357.17 138.562 356.87 139.502C356.495 140.379 355.989 141.194 355.37 141.918L351.247 147.24C355.669 150.554 359.493 154.88 361.039 160.192C361.91 163.217 361.642 166.428 361.611 169.577C361.513 178.822 363.518 188.032 362.884 197.256C362.142 208.061 357.834 218.272 355.612 228.869C353.71 237.967 353.351 247.321 354.551 256.539C377.649 264.545 401.448 268.644 425.865 269.986C430.178 270.224 434.837 270.26 438.378 267.777C441.32 265.712 442.969 262.176 443.531 258.614C444.093 255.052 443.706 251.428 443.315 247.846C442.253 238.158 441.193 228.47 440.135 218.783C439.532 213.269 438.929 207.725 439.321 202.197C439.614 198.067 440.46 194.015 441.3 189.973L446.453 165.163C447.19 161.638 447.932 158.086 449.391 154.798C450.586 152.113 452.241 149.636 453.56 147.023C455.133 143.892 456.217 140.537 456.776 137.076C456.999 136.071 456.985 135.028 456.734 134.03C456.183 132.337 454.498 131.32 452.926 130.489C443.341 125.443 433.069 121.834 422.438 119.778C421.716 122.818 421.855 125.668 420.562 128.502Z" fill="#E3E8F4"/>
<path d="M418.423 113.635C421 108.689 425.819 105.22 428.617 100.389C430.164 97.6492 431.028 94.5769 431.138 91.4318C431.247 88.2867 430.598 85.1615 429.246 82.321C428.261 80.3077 426.927 78.4597 426.154 76.3535C425.293 73.9583 425.21 71.3204 424.216 68.9768C422.85 65.7659 419.892 63.4533 416.671 62.1214C413.45 60.7896 409.972 60.3095 406.503 59.8449L394.794 58.2653C393.099 58.0382 391.342 57.811 389.693 58.2653C388.043 58.7196 386.508 60.0669 386.374 61.7807C386.214 63.8095 387.992 65.6988 387.58 67.6914C387.43 68.3935 387.018 69.1058 387.255 69.7872C387.466 70.2424 387.831 70.6081 388.286 70.8197C391.063 72.3683 394.382 72.5077 397.392 73.5195C400.402 74.5313 403.421 77.071 403.117 80.2303C402.953 81.9286 401.86 83.6941 402.602 85.2169C403.313 86.6262 405.179 86.8843 406.668 87.3231C411.487 88.722 414.867 93.9565 414.167 98.938C413.95 100.487 413.393 101.968 413.28 103.522C412.904 108.963 413.759 110.517 418.197 113.681L418.423 113.635Z" fill="#3F3D56"/>
<path d="M448.525 137.164C448.549 138.194 448.361 139.218 447.973 140.173C446.366 143.606 441.444 143.389 438.182 145.335C434.121 147.762 433.224 153.177 432.853 157.895C432.431 163.238 432.142 168.658 433.234 173.898C434.327 179.137 436.955 184.248 441.346 187.319C446.69 191.041 453.957 191.17 460.058 188.904C466.16 186.638 471.257 182.255 475.679 177.465C479.874 172.922 483.631 167.858 485.883 162.092C486.279 161.059 486.63 159.965 486.31 158.933C485.831 157.384 484.146 156.682 482.775 155.835C479.575 153.899 477.441 150.523 476.333 146.956C475.225 143.389 475.04 139.595 475.004 135.853C474.962 131.965 474.952 127.717 472.478 124.718C470.005 121.719 465.717 120.877 461.811 120.908C458.615 120.908 449.772 121.213 447.592 124.005C445.804 126.328 448.654 133.839 448.525 137.164Z" fill="#BE6F72"/>
<path opacity="0.1" d="M448.525 137.164C448.549 138.194 448.361 139.218 447.973 140.173C446.366 143.606 441.444 143.389 438.182 145.335C434.121 147.762 433.224 153.177 432.853 157.895C432.431 163.238 432.142 168.658 433.234 173.898C434.327 179.137 436.955 184.248 441.346 187.319C446.69 191.041 453.957 191.17 460.058 188.904C466.16 186.638 471.257 182.255 475.679 177.465C479.874 172.922 483.631 167.858 485.883 162.092C486.279 161.059 486.63 159.965 486.31 158.933C485.831 157.384 484.146 156.682 482.775 155.835C479.575 153.899 477.441 150.523 476.333 146.956C475.225 143.389 475.04 139.595 475.004 135.853C474.962 131.965 474.952 127.717 472.478 124.718C470.005 121.719 465.717 120.877 461.811 120.908C458.615 120.908 449.772 121.213 447.592 124.005C445.804 126.328 448.654 133.839 448.525 137.164Z" fill="black"/>
<path d="M421.046 275.603C421.206 276.389 421.576 277.117 422.118 277.709C422.627 278.111 423.221 278.392 423.855 278.529C440.769 283.501 458.837 281.518 476.349 279.49C473.952 272.18 471.54 264.788 470.876 257.122C470.324 250.798 470.943 244.217 468.706 238.285C468.046 236.53 429.601 244.609 425.808 245.265C423.865 245.6 421.629 245.486 420.253 247.03C418.593 248.899 418.454 253.348 418.279 255.677C417.784 262.403 419.171 269.176 421.046 275.603Z" fill="#BE6F72"/>
<path d="M459.559 357.547C456.466 358.982 453.276 360.319 449.973 361.516C448.186 362.167 446.362 362.776 444.5 363.344C441.449 364.273 438.316 365.083 435.043 365.749C433.178 361.01 431.31 356.27 429.441 351.528C428.065 348.038 426.689 344.533 425.54 340.966C424.741 338.53 424.084 336.05 423.572 333.537C421.884 324.998 422.323 316.174 424.85 307.845C431.992 309.193 438.975 310.07 446.01 311.092C449.767 311.609 453.534 312.218 457.348 312.935C457.647 315.423 457.918 317.912 458.162 320.4C458.533 324.24 458.837 328.081 459.074 331.922C459.6 340.456 459.761 348.998 459.559 357.547Z" fill="#BE6F72"/>
<path opacity="0.1" d="M459.559 357.547C456.466 358.982 453.276 360.319 449.973 361.516C448.186 362.167 446.362 362.776 444.5 363.344C441.449 364.273 438.316 365.083 435.043 365.749C433.178 361.01 431.31 356.27 429.441 351.528C428.065 348.038 426.689 344.533 425.54 340.966C424.741 338.53 424.084 336.05 423.572 333.537C421.884 324.998 422.323 316.174 424.85 307.845C431.992 309.193 438.975 310.07 446.01 311.092C449.767 311.609 453.534 312.218 457.348 312.935C457.647 315.423 457.918 317.912 458.162 320.4C458.533 324.24 458.837 328.081 459.074 331.922C459.6 340.456 459.761 348.998 459.559 357.547Z" fill="black"/>
<path d="M499.189 335.179C499.23 338.152 498.385 341.188 497.602 344.104C497.545 344.311 497.494 344.512 497.442 344.719C495.578 344.137 493.971 342.93 492.891 341.301C492.334 340.418 491.921 339.451 491.67 338.436C489.337 340.026 486.984 341.601 484.61 343.16C476.843 348.27 468.634 353.345 459.559 357.547C456.466 358.982 453.276 360.319 449.973 361.516C449.286 359.107 448.633 356.683 448.015 354.243C447.339 351.731 446.809 349.182 446.427 346.608C445.672 340.763 446.258 334.822 448.138 329.237L448.37 328.566C449.246 326.083 450.377 323.697 451.746 321.448C453.029 319.383 455.57 319.729 458.162 320.415C459.337 320.72 460.527 321.086 461.61 321.313C468.345 322.728 475.339 321.267 482.224 321.654C485.505 321.818 488.72 322.638 491.68 324.065C494.994 325.732 497.664 328.282 498.71 331.808C498.858 332.316 498.972 332.833 499.05 333.357C499.137 333.96 499.183 334.569 499.189 335.179Z" fill="#BE6F72"/>
<path d="M375.206 97.4357C364.564 87.1114 352.469 78.3616 340.095 70.1795C336.875 68.1569 333.778 65.9454 330.819 63.5565C327.727 60.9754 325.032 57.9452 321.749 55.6223C318.466 53.2993 314.405 51.7042 310.463 52.4682C306.52 53.2322 303.016 57.0109 303.593 60.9651C304.108 64.4444 307.231 66.8293 310.117 68.8271C315.58 72.6109 321.068 76.4051 327.01 79.3734C329.075 80.3106 331.077 81.3797 333.004 82.5739C336.704 85.0724 339.399 88.7685 342.198 92.2426C352.76 105.384 365.697 116.417 380.334 124.764C380.509 124.867 386.606 111.688 386.348 109.98C385.781 106.051 378.01 100.161 375.206 97.4357Z" fill="#BE6F72"/>
<path d="M466.227 264.256C458.013 264.772 450.133 267.55 442.099 269.32C434.064 271.091 425.334 271.777 417.877 268.288L422.412 299.307C422.665 301.031 422.927 302.797 422.551 304.495C422.206 306.116 421.309 307.644 421.387 309.301C421.505 311.923 423.963 313.766 426.277 314.979C432.999 318.534 440.531 320.273 448.128 320.023C447.566 322.294 446.865 324.54 446.299 326.811C450.086 330.884 456.281 331.158 461.687 332.448C465.81 333.424 469.675 335.117 473.715 336.309C478.601 337.754 483.675 338.462 488.769 338.41C492.206 338.374 495.85 337.894 498.519 335.747C501.802 333.099 502.822 328.597 503.533 324.437C503.93 322.114 504.296 319.76 504.049 317.416C503.781 314.721 502.74 312.171 501.709 309.673L494.649 292.509C493.366 289.411 492.072 286.268 490.526 283.279C485.476 273.61 477.096 263.58 466.227 264.256Z" fill="#3F3D56"/>
<path d="M472.514 157.079C473.125 155.473 474.251 154.116 475.716 153.222C477.181 152.327 478.901 151.947 480.605 152.139C482.667 152.428 484.507 153.559 486.274 154.663L496.117 160.817C497.749 161.789 499.314 162.868 500.802 164.048C507.589 169.685 510.207 178.951 510.954 187.753C511.244 191.161 511.309 194.592 511.382 198.019C511.594 208.007 507.478 217.595 499.787 223.971C497.612 225.772 495.411 227.584 493.762 229.902C492.453 231.724 491.521 233.81 490.155 235.58C489.569 236.313 488.915 236.978 488.203 237.568C486.271 239.169 484.658 244.558 485.244 246.999C485.852 249.534 486.017 252.161 486.692 254.696C487.619 258.139 489.542 261.283 490.175 264.793C490.619 267.214 490.423 269.697 490.583 272.154C491.068 279.828 494.889 286.919 497.701 294.132C500.407 301.073 493.542 306.068 487.48 301.739C485.646 300.422 483.873 298.997 482.136 297.578L469.01 286.918C462.625 281.756 456.178 276.48 451.102 269.996C447.917 265.929 445.319 261.427 442.124 257.37C439.755 254.361 436.98 251.556 433.714 249.613C431.701 248.415 428.707 248.878 427.411 250.829C427.159 251.168 427.047 251.598 427.081 252.019C427.085 252.065 427.09 252.11 427.096 252.155C427.158 252.607 427.346 253.032 427.457 253.474C427.928 255.352 428.215 257.272 428.313 259.208L428.638 263.089C428.759 264.118 428.759 265.158 428.638 266.187C428.148 269.506 425.076 272.082 421.763 272.598C421.284 272.702 420.786 272.686 420.315 272.552C419.392 272.242 418.882 271.266 418.604 270.337C417.3 265.929 419.299 261.278 419.459 256.688C419.481 255.524 419.442 254.359 419.341 253.199C419.158 250.491 416.954 248.228 415.392 246.009C414.52 244.771 413.91 243.262 413.522 241.816C411.378 233.83 409.219 225.566 410.461 217.389C410.791 215.2 411.368 212.98 410.976 210.792C410.461 207.865 408.358 205.49 407.25 202.733C403.643 193.746 411.306 183.99 410.595 174.342C410.296 170.289 407.73 166.769 406.184 163.011C405.384 160.82 404.347 158.724 403.092 156.759C401.515 154.503 399.386 152.697 397.32 150.88C393.127 147.195 389.076 143.352 385.176 139.361C381.241 135.335 375.476 133.269 371.382 129.405C370.022 128.114 368.903 126.411 368.867 124.537C368.831 122.663 370.212 120.696 372.083 120.598C373.175 120.542 374.196 121.084 375.263 121.321C378.602 122.054 381.962 119.592 383.452 116.5C384.229 114.886 384.6 113.146 384.774 111.364C385.052 108.522 387.096 105.872 389.791 106.818C391.355 107.366 392.752 108.31 393.846 109.557C396.15 112.065 397.649 115.194 399.464 118.074C400.202 119.354 401.15 120.5 402.267 121.466C404.746 123.438 408.317 123.809 410.482 126.112C411.579 127.289 412.188 128.847 413.192 130.107C416.017 133.653 421.186 134.087 425.046 136.42C428.905 138.754 431.59 143.018 435.868 144.401C437.414 144.917 439.099 144.984 440.63 145.557C444.165 146.874 446.324 150.637 446.814 154.38C447.303 158.122 446.469 161.906 445.623 165.592L443.639 174.218C443.201 176.128 442.866 178.425 444.273 179.788C444.938 180.339 445.718 180.732 446.556 180.939C450.164 182.116 454.183 183.272 457.574 181.605C459.177 180.81 460.435 179.468 461.584 178.095C466.614 172.158 469.958 164.384 472.514 157.079Z" fill="url(#paint2_linear)"/>
<path d="M513.191 332.619C512.48 337.342 509.883 341.988 505.631 344.151C503.082 345.41 500.14 345.614 497.442 344.719C495.578 344.137 493.971 342.93 492.891 341.301C492.334 340.418 491.921 339.451 491.67 338.436C491.67 338.385 491.644 338.328 491.634 338.276C491.247 336.45 491.086 334.583 491.155 332.717C491.153 329.82 491.326 326.926 491.67 324.049C491.958 321.628 492.433 319.232 493.092 316.884C494.051 313.534 495.432 310.308 496.7 307.076C497.359 305.373 497.993 303.664 498.514 301.914C498.828 300.882 499.096 299.818 499.313 298.745L499.39 298.357C499.431 298.141 499.467 297.924 499.503 297.707C500.019 294.764 500.168 291.719 501.493 289.06C504.585 282.819 510.604 284.414 511.521 290.17C511.591 290.616 511.63 291.066 511.64 291.517C511.779 298.801 508.893 305.92 510.212 313.23C510.584 315.012 511.052 316.773 511.614 318.505C512.078 320.1 512.495 321.716 512.815 323.353C513.462 326.398 513.589 329.531 513.191 332.619Z" fill="#BE6F72"/>
<path d="M516.026 251.624C516.165 254.608 516.026 257.628 516.623 260.555C518.02 267.472 523.323 273.594 522.735 280.625C522.591 282.339 521.957 284.182 520.463 285.029C518.968 285.875 516.494 285.808 516.005 287.512C515.866 287.987 515.938 288.503 515.783 288.972C515.459 289.974 514.237 290.402 513.207 290.377C512.176 290.351 511.145 290.01 510.078 290.098C506.342 290.413 504.971 295.42 501.642 297.139C499.4 298.295 496.489 297.655 494.638 295.947C492.788 294.238 491.979 291.574 492.124 289.05C492.232 287.145 492.835 285.307 493.154 283.428C493.737 280.078 493.433 276.645 493.128 273.259C492.68 268.298 492.216 263.275 490.588 258.573C489.82 256.353 488.8 254.231 488.135 251.98C487.186 248.795 486.97 245.445 486.872 242.126C486.671 235.141 487.15 227.672 491.314 222.055C494.443 217.843 498.926 214.421 502.467 210.523C504.683 208.081 505.322 207.317 507.77 209.387C509.785 211.086 511.892 213.429 512.119 215.732C512.738 221.632 512.119 227.434 513.222 233.443C514.325 239.452 515.737 245.455 516.026 251.624Z" fill="url(#paint3_linear)"/>
<path d="M462.573 137.928C477.089 137.928 488.856 126.141 488.856 111.601C488.856 97.0607 477.089 85.2737 462.573 85.2737C448.058 85.2737 436.29 97.0607 436.29 111.601C436.29 126.141 448.058 137.928 462.573 137.928Z" fill="#BE6F72"/>
<path d="M486.64 161.963C487.217 161.152 487.903 160.28 488.882 160.11C489.621 160.054 490.361 160.209 491.016 160.559L497.937 163.455C499.807 160.361 500.91 156.863 501.152 153.254C501.297 151.04 501.122 148.794 501.544 146.616C502.173 143.384 504.085 140.488 504.528 137.226C504.878 134.593 504.245 131.945 503.863 129.317C502.688 121.202 503.951 112.922 503.276 104.751C502.601 96.5788 499.328 87.8238 492.051 84.0709C489.99 83.0385 487.769 82.419 485.625 81.6034C480.848 79.7812 476.565 76.8645 471.844 74.8926C467.124 72.9206 461.579 72.0173 457.002 74.2835C452.426 76.5496 449.762 82.9249 452.735 87.0856C453.714 88.4536 455.147 89.4241 456.518 90.4101C459.306 92.4078 462.151 94.8753 462.795 98.2514C463.949 104.327 457.641 109.092 455.863 115.034C455.207 117.354 455.149 119.803 455.693 122.152C456.461 125.673 458.337 128.997 458.27 132.6C458.219 136.549 455.858 140.127 455.415 144.055C455.255 145.495 455.353 146.956 455.173 148.391C454.855 150.284 454.296 152.129 453.508 153.879C449.386 164.203 445.206 174.636 439.079 183.917C445.639 184.029 452.124 182.511 457.956 179.499C457.118 183.478 455.513 187.255 453.23 190.618C458.473 190.01 463.517 188.247 468 185.456C466.912 189.357 465.337 193.105 463.31 196.611C463.486 196.312 466.727 195.579 467.325 195.238C468.554 194.538 469.542 193.482 470.159 192.208C471.911 189.069 473.004 185.285 474.627 182.023C478.098 175.03 482.115 168.322 486.64 161.963Z" fill="#3F3D56"/>
<path d="M287.313 3.97486C286.065 4.10082 284.809 4.13016 283.556 4.06261C283.343 4.03924 283.128 4.1008 282.96 4.23404C282.791 4.36728 282.681 4.56153 282.654 4.77499L280.258 22.7806C280.073 24.0876 279.539 25.3203 278.712 26.3477C278.03 27.1652 277.523 28.1146 277.222 29.1367C276.921 30.1588 276.834 31.2319 276.965 32.2893V62.8751C276.965 62.8751 276.81 66.9532 279.938 66.9532C283.682 67.4244 287.47 67.4244 291.214 66.9532C291.214 66.9532 293.719 66.4783 293.719 62.7151V32.599C293.91 31.5483 293.871 30.4685 293.604 29.4346C293.337 28.4006 292.848 27.4371 292.173 26.6109C291.373 25.5798 290.856 24.3573 290.673 23.0645L288.184 4.68207C288.156 4.4754 288.05 4.28727 287.888 4.1559C287.726 4.02454 287.521 3.95981 287.313 3.97486Z" fill="#3F3D56"/>
<path d="M287.328 32.8365H283.53C280.385 32.8365 277.836 35.3903 277.836 38.5407V52.8553C277.836 56.0057 280.385 58.5595 283.53 58.5595H287.328C290.474 58.5595 293.023 56.0057 293.023 52.8553V38.5407C293.023 35.3903 290.474 32.8365 287.328 32.8365Z" fill="#F9A826"/>
<path d="M322.872 30.3019C321.624 30.4278 320.368 30.4572 319.115 30.3896C318.902 30.3662 318.688 30.4278 318.519 30.561C318.35 30.6943 318.241 30.8885 318.213 31.102L315.817 49.1076C315.633 50.4146 315.098 51.6473 314.271 52.6747C313.589 53.4922 313.082 54.4416 312.781 55.4637C312.481 56.4858 312.393 57.5589 312.524 58.6163V89.2021C312.524 89.2021 312.369 93.2802 315.498 93.2802C319.241 93.7514 323.029 93.7514 326.773 93.2802C326.773 93.2802 329.278 92.8053 329.278 89.042V58.926C329.469 57.8753 329.43 56.7955 329.163 55.7616C328.896 54.7276 328.408 53.7641 327.732 52.9379C326.932 51.9068 326.415 50.6843 326.232 49.3915L323.743 31.0091C323.715 30.8024 323.609 30.6143 323.447 30.4829C323.286 30.3515 323.08 30.2868 322.872 30.3019Z" fill="#3F3D56"/>
<path d="M322.888 59.1635H319.089C315.944 59.1635 313.395 61.7174 313.395 64.8677V79.1824C313.395 82.3327 315.944 84.8866 319.089 84.8866H322.888C326.033 84.8866 328.582 82.3327 328.582 79.1824V64.8677C328.582 61.7174 326.033 59.1635 322.888 59.1635Z" fill="#F9A826"/>
<g opacity="0.2">
<path opacity="0.2" d="M282.902 338.756C282.885 339.313 282.821 339.868 282.711 340.413C279.124 339.842 275.517 339.326 271.889 338.865C271.889 338.72 271.889 338.571 271.889 338.421C271.922 336.873 272.367 335.362 273.177 334.043C274.239 332.36 275.852 331.307 277.63 331.364C279.408 331.421 280.948 332.572 281.902 334.312C282.623 335.678 282.968 337.212 282.902 338.756Z" fill="#3F3D56"/>
<path opacity="0.2" d="M283.191 329.941C283.317 325.949 280.951 322.635 277.907 322.538C274.863 322.442 272.294 325.6 272.168 329.592C272.042 333.585 274.407 336.899 277.451 336.995C280.495 337.092 283.065 333.934 283.191 329.941Z" fill="#3F3D56"/>
<path opacity="0.2" d="M283.472 321.103C283.598 317.111 281.232 313.797 278.188 313.7C275.145 313.604 272.575 316.762 272.449 320.755C272.323 324.747 274.688 328.061 277.732 328.158C280.776 328.254 283.346 325.096 283.472 321.103Z" fill="#3F3D56"/>
<path opacity="0.2" d="M283.748 312.266C283.874 308.273 281.508 304.959 278.464 304.863C275.421 304.766 272.851 307.924 272.725 311.917C272.599 315.909 274.964 319.223 278.008 319.32C281.052 319.416 283.622 316.258 283.748 312.266Z" fill="#3F3D56"/>
<path opacity="0.2" d="M284.029 303.428C284.155 299.436 281.79 296.121 278.746 296.025C275.702 295.928 273.132 299.087 273.006 303.079C272.88 307.071 275.246 310.385 278.29 310.482C281.333 310.578 283.903 307.42 284.029 303.428Z" fill="#3F3D56"/>
<path opacity="0.2" d="M259.762 242.1C259.037 241.116 258.382 240.081 257.804 239.003L272.368 237.077L256.691 236.701C255.292 233.377 254.584 229.802 254.612 226.194C254.639 222.587 255.401 219.024 256.851 215.721L277.526 227.311L258.587 212.423C260.498 209.328 263.025 206.66 266.011 204.587C268.997 202.514 272.378 201.08 275.942 200.374C279.506 199.669 283.177 199.707 286.726 200.487C290.275 201.266 293.625 202.77 296.567 204.905C299.509 207.04 301.981 209.759 303.827 212.893C305.673 216.028 306.854 219.51 307.296 223.122C307.738 226.734 307.432 230.399 306.397 233.887C305.361 237.375 303.619 240.612 301.279 243.396C302.408 244.927 303.367 246.576 304.139 248.315L285.025 257.504L305.294 251.397C306.57 255.616 306.776 260.087 305.892 264.406C305.008 268.724 303.063 272.753 300.233 276.129C303.176 280.128 304.935 284.876 305.311 289.83C305.686 294.784 304.663 299.744 302.356 304.143C300.05 308.541 296.555 312.201 292.27 314.703C287.985 317.206 283.084 318.45 278.127 318.293C273.169 318.137 268.356 316.586 264.237 313.818C260.118 311.05 256.86 307.177 254.835 302.642C252.81 298.107 252.1 293.092 252.787 288.172C253.473 283.251 255.528 278.624 258.716 274.818C255.2 270.038 253.391 264.214 253.578 258.28C253.765 252.347 255.937 246.648 259.747 242.1H259.762Z" fill="#F9A826"/>
<path opacity="0.1" d="M306.417 259.951C306.237 265.888 304.057 271.59 300.233 276.129C303.175 280.128 304.935 284.876 305.311 289.83C305.686 294.784 304.663 299.744 302.356 304.143C300.05 308.541 296.555 312.201 292.27 314.703C287.985 317.206 283.084 318.45 278.127 318.293C273.169 318.137 268.356 316.586 264.237 313.818C260.118 311.05 256.86 307.177 254.835 302.642C252.81 298.107 252.1 293.092 252.787 288.172C253.473 283.251 255.528 278.624 258.716 274.818C255.33 270.208 306.51 256.983 306.417 259.951Z" fill="black"/>
</g>
</g>
<defs>
<linearGradient id="paint0_linear" x1="219.41" y1="108.271" x2="219.41" y2="269.519" gradientUnits="userSpaceOnUse">
<stop offset="0.0001" stop-color="#296DC0"/>
<stop offset="1" stop-color="#033F88"/>
</linearGradient>
<linearGradient id="paint1_linear" x1="159.632" y1="134.434" x2="159.632" y2="180.072" gradientUnits="userSpaceOnUse">
<stop offset="0.0001" stop-color="#296DC0"/>
<stop offset="1" stop-color="#033F88"/>
</linearGradient>
<linearGradient id="paint2_linear" x1="440.784" y1="106.274" x2="440.784" y2="308.702" gradientUnits="userSpaceOnUse">
<stop offset="0.0104167" stop-color="#033F88"/>
<stop offset="1" stop-color="#296DC0"/>
</linearGradient>
<linearGradient id="paint3_linear" x1="504.807" y1="208.19" x2="504.807" y2="297.724" gradientUnits="userSpaceOnUse">
<stop stop-color="#033F88"/>
<stop offset="1" stop-color="#296DC0"/>
</linearGradient>
<clipPath id="clip0">
<rect width="585" height="368" fill="white"/>
</clipPath>
</defs>
</svg>
