<svg width="53" height="69" viewBox="0 0 53 69" fill="none" xmlns="http://www.w3.org/2000/svg">
<path fill-rule="evenodd" clip-rule="evenodd" d="M12.9099 0.623535C9.60265 0.623458 6.28984 1.9645 3.77395 4.64495C-1.25755 10.0055 -1.25842 18.7446 3.77395 24.0979C7.11941 27.6614 11.3017 28.4764 14.978 27.4653L43.4541 53.992C43.5944 54.1203 43.7564 54.219 43.9314 54.2827C45.3512 54.8345 46.779 54.5169 47.9539 53.7741C49.2017 55.4835 49.5971 57.1573 49.522 58.6917C49.4344 60.4886 48.6379 62.1779 47.4085 63.4642C46.179 64.7505 44.5386 65.5838 42.9086 65.7171C41.2814 65.8502 39.6643 65.3568 38.1816 63.8034C38.1816 63.8034 38.1816 63.7809 38.1816 63.7793L21.296 45.8041C19.5351 43.928 17.4245 43.0908 15.4098 43.115C15.2755 43.115 15.134 43.1057 15.0007 43.115C12.8696 43.2649 10.9342 44.3255 9.47829 45.8767C8.0222 47.428 7.02828 49.5165 6.88742 51.7877C6.74677 54.0589 7.53175 56.4971 9.41007 58.4982C9.54493 58.6459 9.70607 58.7634 9.88405 58.844C10.062 58.9245 10.2533 58.9664 10.4467 58.9673C10.64 58.9681 10.8316 58.9278 11.0102 58.8488C11.1888 58.7698 11.3508 58.6536 11.4868 58.5071C11.6227 58.3605 11.7299 58.1866 11.8021 57.9953C11.8742 57.8041 11.9099 57.5994 11.907 57.3933C11.9041 57.1872 11.8626 56.9839 11.7851 56.795C11.7076 56.6062 11.5955 56.4357 11.4554 56.2936C10.099 54.8485 9.68577 53.4002 9.77369 51.9815C9.86162 50.5628 10.5184 49.1523 11.5236 48.0812C12.5289 47.0101 13.8503 46.3096 15.1826 46.2158C16.5148 46.1221 17.8943 46.5634 19.2505 48.0085L36.1362 65.9837C36.1362 65.9918 36.1362 65.9998 36.1362 66.0078C38.184 68.1589 40.7423 69.0137 43.1359 68.8179C45.5295 68.6222 47.7646 67.436 49.4538 65.6686C51.143 63.9014 52.3008 61.5032 52.4309 58.8371C52.5478 56.4465 51.7929 53.9009 49.9993 51.5695C50.6328 50.3525 50.8726 48.8611 50.3401 47.4027C50.2754 47.2333 50.1831 47.0775 50.0674 46.9425C41.264 36.279 33.9479 27.1974 25.1821 16.5881C26.1185 12.6651 25.362 8.19575 22.0232 4.64495C19.5111 1.9652 16.2164 0.623582 12.9099 0.623535ZM12.9099 3.72438C15.4667 3.72431 18.022 4.76205 19.9778 6.84946C20.0403 6.91605 20.0996 6.97633 20.1596 7.04326C20.1596 7.13146 20.1465 7.35621 20.0005 7.81847C19.8133 8.41073 19.4465 9.23482 18.9097 10.1199C17.8359 11.8899 16.1456 13.9852 14.319 15.9097C12.4923 17.8343 10.5144 19.5956 8.84195 20.7306C8.00533 21.2981 7.24078 21.6919 6.68292 21.8934C6.24221 22.0525 6.0228 22.0604 5.95567 22.063C5.9084 22.0142 5.8663 21.9677 5.81932 21.9176C1.90079 17.7499 1.89934 11.0258 5.81932 6.84946C7.77931 4.76129 10.3532 3.72443 12.9099 3.72438ZM22.1595 10.3137C22.9744 12.5216 22.828 14.7866 22.0459 16.9514C20.8526 20.251 18.042 23.1433 14.9098 24.2675C14.8793 24.2745 14.849 24.2825 14.8189 24.2915C12.9077 24.9602 10.9299 25.0513 9.001 24.2187C9.45829 23.9687 9.93332 23.6701 10.41 23.3466C12.3409 22.0364 14.4191 20.1632 16.3643 18.1139C18.3095 16.0645 20.0958 13.8447 21.3413 11.791C21.6471 11.2874 21.9234 10.7994 22.1595 10.3137ZM28.9774 25.8906C35.2215 33.5075 41.0164 40.6598 47.6812 48.7351C47.8276 49.3964 47.5641 50.1114 46.9994 50.6973C46.4415 51.2763 45.7265 51.5407 45.1358 51.4241L23.7276 31.4867L28.9774 25.8906Z" fill="#F0A500"/>
</svg>
