<svg width="102" height="102" viewBox="0 0 102 102" fill="none" xmlns="http://www.w3.org/2000/svg">
<g clip-path="url(#clip0)">
<path d="M22.8298 102.262C21.7122 102.262 20.6025 101.914 19.6554 101.229C17.8912 99.9501 17.0671 97.7524 17.5472 95.6317L24.1092 66.7264L1.85523 47.2102C0.219416 45.7822 -0.405493 43.5207 0.266109 41.4514C0.937711 39.386 2.76497 37.9237 4.92841 37.7237L34.3731 35.0506L46.0144 7.80747C46.8728 5.8059 48.8277 4.51328 50.9997 4.51328C53.1717 4.51328 55.1266 5.8059 55.985 7.8028L67.6263 35.0506L97.0663 37.7237C99.2345 37.9191 101.062 39.386 101.733 41.4514C102.405 43.5168 101.784 45.7822 100.148 47.2102L77.8941 66.7225L84.4561 95.6271C84.937 97.7524 84.1121 99.9501 82.3487 101.225C80.5891 102.5 78.2428 102.598 76.3899 101.484L50.9997 86.311L25.6096 101.492C24.7512 102.002 23.7948 102.262 22.8298 102.262ZM50.9997 79.7747C51.9647 79.7747 52.9204 80.0339 53.7795 80.5436L77.7416 94.8753L71.5486 67.5933C71.1065 65.6516 71.7657 63.6244 73.2661 62.3108L94.2788 43.8826L66.4785 41.358C64.4769 41.1751 62.7555 39.9168 61.9734 38.0724L50.9997 12.3632L40.0128 38.0763C39.2393 39.9082 37.5179 41.1666 35.521 41.3495L7.71677 43.874L28.7287 62.3022C30.2337 63.6197 30.8921 65.6431 30.4462 67.5894L24.2578 94.8706L48.2199 80.5436C49.0783 80.0339 50.0347 79.7747 50.9997 79.7747ZM34.1482 35.5774C34.1482 35.5774 34.1482 35.5821 34.1435 35.586L34.1482 35.5774ZM67.8427 35.565L67.8474 35.5735C67.8474 35.5688 67.8474 35.5688 67.8427 35.565Z" fill="white"/>
</g>
<defs>
<clipPath id="clip0">
<rect width="102" height="102" fill="white"/>
</clipPath>
</defs>
</svg>
