<svg width="122" height="68" viewBox="0 0 122 68" fill="none" xmlns="http://www.w3.org/2000/svg">
<path d="M121.109 31.2874C120.836 30.9667 114.279 23.3472 103.662 15.6607C75.3892 -4.80763 47.745 -5.62881 18.338 15.6607C7.72061 23.3472 1.1643 30.9667 0.890517 31.2874C-0.296839 32.6773 -0.296839 34.7588 0.890517 36.1487C1.1643 36.4693 7.72061 44.0888 18.3382 51.7753C46.6107 72.2437 74.2549 73.0648 103.662 51.7753C114.28 44.0888 120.836 36.4691 121.11 36.1487C122.297 34.7588 122.297 32.6773 121.109 31.2874ZM86.9599 33.718C86.9599 48.378 75.2188 60.1316 61.0001 60.1316C46.7578 60.1316 35.0403 48.3535 35.0403 33.718C35.0403 19.058 46.7813 7.30443 61.0001 7.30443C75.2421 7.30443 86.9599 19.0826 86.9599 33.718ZM8.51742 33.718C15.5734 26.4577 24.4022 19.5502 33.6382 14.7232C26.0471 26.0661 25.9 41.1501 33.6382 52.7128C24.356 47.8618 15.5312 40.9342 8.51742 33.718V33.718ZM88.3614 52.7128C95.9526 41.3699 96.0996 26.286 88.3614 14.7232C97.6437 19.5742 106.468 26.5019 113.482 33.718C106.441 40.9621 97.616 47.8763 88.3614 52.7128Z" fill="white"/>
<path d="M47.5889 29.8679C47.2069 31.1568 47 32.524 47 33.9416C47 41.6411 53.0621 47.8832 60.5401 47.8832C68.0179 47.8832 74.08 41.6414 74.08 33.9416C74.08 26.2418 68.0179 20 60.5401 20C56.8977 20 53.5939 21.4836 51.1601 23.8926L57.8387 31.6439L47.5889 29.8679Z" fill="white"/>
</svg>
